<?xml version="1.0" encoding="utf-8"?>
<!-- Generator: Adobe Illustrator 24.2.0, SVG Export Plug-In . SVG Version: 6.00 Build 0)  -->
<svg version="1.1" id="Layer_1" xmlns="http://www.w3.org/2000/svg" xmlns:xlink="http://www.w3.org/1999/xlink" x="0px" y="0px"
	 viewBox="0 0 774.806 773.726" enable-background="new 0 0 774.806 773.726" xml:space="preserve">
<g>
	<path fill="#294185" d="M359.91,773.726c-4.529-2.335-9.588-1.233-14.308-1.709c-20.95-2.111-41.434-6.362-61.695-11.801
		c-27.96-7.506-54.644-18.358-80.074-32.133c-21.77-11.792-42.307-25.476-61.457-41.266c-13.42-11.065-26.345-22.647-38.12-35.406
		c-19.961-21.63-37.55-45.039-52.374-70.563c-13.647-23.497-24.675-48.098-33.24-73.831c-6.455-19.395-11.193-39.266-14.442-59.409
		c-1.662-10.307-3.484-20.713-3.264-31.271c0.019-0.911,0.373-2.054-0.935-2.519c0-18.329,0-36.657,0-54.986
		c2.269-4.537,1.258-9.587,1.727-14.307c2.084-20.964,6.351-41.454,11.78-61.73c7.445-27.807,18.231-54.36,31.876-79.651
		c10.805-20.026,23.274-39.027,37.54-56.861c11.366-14.209,23.387-27.775,36.523-40.327c20.251-19.351,42.331-36.401,66.245-50.986
		c22.625-13.799,46.461-25.091,71.414-34.11c20.455-7.393,41.463-12.726,62.748-16.72c12.002-2.252,24.204-4.166,36.538-4.292
		c1.184-0.012,2.718,0.754,3.518-0.926c18.329,0,36.657,0,54.986,0c4.534,2.282,9.588,1.243,14.305,1.72
		c20.949,2.119,41.431,6.361,61.697,11.8c27.953,7.502,54.643,18.313,80.056,32.092c21.759,11.799,42.29,25.495,61.459,41.263
		c13.434,11.05,26.359,22.64,38.121,35.392c19.944,21.622,37.595,44.999,52.362,70.546c13.523,23.393,24.558,47.823,33.051,73.465
		c6.535,19.732,11.407,39.873,14.709,60.341c1.665,10.316,3.496,20.72,3.181,31.286c-0.024,0.808-0.086,1.691,0.968,2.004
		c0,18.329,0,36.657,0,54.986c-2.347,4.54-1.233,9.61-1.714,14.343c-2.439,24.022-7.54,47.447-14.337,70.527
		c-7.069,24.004-16.657,47.036-28.458,69.09c-11.06,20.668-23.861,40.205-38.428,58.636c-12.318,15.586-25.551,30.317-40.093,43.757
		c-19.42,17.949-40.393,33.958-63.077,47.693c-22.56,13.659-46.211,24.911-70.993,33.914c-20.437,7.425-41.446,12.764-62.741,16.71
		c-12.012,2.226-24.199,4.248-36.543,4.293c-1.191,0.004-2.721-0.717-3.524,0.946C396.567,773.726,378.238,773.726,359.91,773.726z"
		/>
	<path fill="#FEFEFE" d="M370.66,7.401c99.843-3.603,191.326,26.993,268.501,95.762c77.699,69.236,120.29,156.868,126.395,260.87
		c6.115,104.173-25.797,196.465-95.245,274.237c-75.764,84.845-172.178,127.222-285.664,127.028
		c-94.378-0.161-178.237-32.375-248.666-95.446C51.119,593.858,8.184,497.54,8.439,383.843
		c0.224-100.189,36.13-187.812,105.633-260.103C182.905,52.146,268.078,14.119,370.66,7.401z"/>
	<path fill="#284187" d="M463.845,638.819c16.505,8.222,33.985,13.286,52.198,15.808c19.645,2.72,39.201,2.265,58.424-2.992
		c30.519-8.346,54.9-25.608,73.092-51.45c19.129-27.174,28.362-57.912,32.363-90.568c1.87-15.263,2.322-30.54,1.799-45.856
		c-0.151-4.443,1.011-5.04,4.92-3.431c4.599,1.893,9.394,3.35,14.18,4.735c2.294,0.664,3.12,1.748,3.153,4.147
		c0.495,36.485-4.799,72.021-18.283,106.025c-10.044,25.327-24.652,47.783-45.006,66.179c-16.513,14.923-35.409,25.78-56.693,32.362
		c-34.3,10.607-68.546,9.143-102.773-0.507c-21.082-5.944-40.956-14.636-59.824-25.706c-1.142-0.67-2.374-1.187-3.564-1.775
		c-10.965-3.979-19.733-11.554-28.965-18.222c-17.85-12.894-33.892-27.932-49.106-43.823c-5.286-5.522-10.212-11.393-15.242-17.158
		c-0.834-0.851-1.67-1.699-2.456-2.596c-8.747-11.508-17.76-22.815-25.761-34.881c-10.669-16.091-20.581-32.61-29.081-49.96
		c-0.466-0.874-0.915-1.757-1.379-2.633c-13.961-27.694-24.2-56.755-31.885-86.761c-0.184-0.527-0.301-1.063-0.382-1.612
		c-5.4-21.862-8.608-44.052-10.115-66.504c-0.065-3.017-0.021-6.03,0.056-9.045c0.153-8.333-0.312-16.663-0.101-24.992
		c0.223-1.713-0.006-3.447,0.169-5.161c1.542-18.756,4.643-37.26,9.73-55.381c8.338-29.702,21.956-56.621,42.777-79.647
		c2.907-3.215,6.15-6.046,9.629-8.617c13.344-11.321,27.409-21.557,43.58-28.548c30.672-13.26,62.42-17.191,95.544-12.098
		c24.924,3.832,48.337,11.926,70.79,22.935c10.262,5.032,19.878,11.378,29.82,17.072c2.059,1.179,2.668,2.594,1.956,4.931
		c-0.77,2.529-1.113,5.188-1.643,7.79c-0.488,5.946-2.509,7.076-7.56,3.78c-13.261-8.653-26.992-16.429-41.668-22.405
		c-20.148-8.205-40.813-14.12-62.858-14.048c-12.154,0.04-24.264-0.039-36.195,2.853c-11.369,2.756-22.239,6.762-32.554,12.259
		c-13.571,6.729-24.879,16.357-35.048,27.437c-7.008,7.824-13.463,16.044-18.3,25.433c-0.845,1.23-1.598,2.51-2.237,3.861
		c-16.631,32.27-23.086,66.909-24.015,102.84c0.104,1.42,0.019,2.838,0.016,4.257c0.073,31.038,3.96,61.601,11.382,91.722
		c0.267,0.778,0.462,1.576,0.605,2.383c6.195,25.778,15.239,50.562,26.15,74.693c0.754,1.668,1.445,3.358,2.103,5.062
		c0.387,0.899,0.764,1.804,1.234,2.666c6.782,14.007,14.281,27.614,22.742,40.683c1.915,4.255,4.887,7.854,7.352,11.767
		c7.096,10.812,15.154,20.893,23.383,30.844c0.799,0.836,1.614,1.656,2.426,2.48c16.679,20.248,35.949,37.697,57.247,52.947
		c2.029,1.453,3.813,3.219,5.961,4.506c1.163,0.724,2.35,1.411,3.487,2.177c3.045,2,5.987,4.165,9.281,5.768
		c0.419,0.212,0.813,0.46,1.199,0.724c6.536,3.659,12.986,7.475,19.793,10.62C461.206,636.888,462.805,637.393,463.845,638.819z"/>
	<path fill="#A6CBDC" d="M285.716,138.797c-2.628,4.527-6.998,7.468-10.37,11.344c-23.278,26.763-36.9,58.025-44.495,92.366
		c-2.879,13.02-4.135,26.201-5.903,39.344c-4.703,0.905-8.763-1.43-12.675-3.167c-14.182-6.3-28.1-13.154-38.063-25.757
		c-0.229-0.289-0.568-0.323-1.203-0.092c0.699,2.685,2.67,4.473,4.504,6.307c9.837,9.837,21.982,15.892,34.546,21.385
		c4.305,1.882,9.515,2.076,12.729,6.221c-0.004,8.705-0.007,17.41-0.011,26.115c-4.113-2.372-0.037-5.564-1.282-7.658
		c-0.732,12.259-3.225,24.96-4.236,37.866c-1.016,12.975-0.819,25.947-0.953,38.927c-0.065,6.255-0.962,7.157-7.366,7.182
		c-17.992,0.071-35.985,0.013-53.977,0.038c-1.986,0.003-3.991-0.22-7.193,0.551c2.828,0.849,4.665,0.66,6.441,0.662
		c17.992,0.019,35.985-0.013,53.977,0.023c7.738,0.016,8.696,0.503,9.394,8.293c1.161,12.951,3.048,25.781,5.416,38.543
		c2.493,13.431,5.607,26.716,9.83,39.739c2.218,6.842,1.646,7.559-4.775,10.774c-8.486,4.249-17.699,6.85-25.913,11.752
		c-6.044,3.607-11.623,7.767-16.781,12.506c-2.059,1.892-3.716,4.156-4.566,6.976c5.111-4.461,9.23-9.833,15.069-13.571
		c10.871-6.96,22.171-12.838,34.502-16.676c4.45-1.385,6.314-0.58,7.977,4.129c4.779,13.53,10.589,26.583,17.293,39.264
		c7.808,14.768,16.741,28.769,27.599,41.499c3.14,3.681,3.151,5.209-0.827,8.14c-7.246,5.339-13.061,11.813-17.016,19.92
		c-2.272,1.511-4.18,0.145-6-0.921c-42.018-24.63-75.485-57.725-99.09-100.494c-13.553-24.556-22.565-50.655-27.688-78.301
		c-3.704-19.986-4.871-40.051-3.721-60.146c1.833-32.033,9.419-62.826,23.089-91.997c1.907-4.07,3.37-8.366,5.974-12.072
		c1.721-2.449,1.795-5.247,2.131-8.017c4.003-3.548,5.912-8.55,8.748-12.883c19.757-30.181,44.359-55.576,74.271-75.754
		C257.954,152.483,271.234,144.532,285.716,138.797z"/>
	<path fill="#294186" d="M162.083,249.79c2.132,1.552,2.085,3.232,0.814,5.476c-14.998,26.476-23.929,55.089-28.56,84.98
		c-3.371,21.765-3.551,43.77-0.906,65.669c3.532,29.234,11.462,57.283,24.638,83.66c13.705,27.437,31.654,51.775,54.025,72.908
		c15.197,14.356,32.016,26.383,49.833,37.138c1.537,0.928,3.315,1.455,4.981,2.168c1.089-0.17,2.086,0.142,3.064,0.571
		c21.846,11.362,44.846,19.532,69.014,24.142c10.426,1.989,20.905,3.906,31.641,4.004c8.331,0.076,16.477,1.181,23.707,6.281
		c5.4,3.81,11.701,6.304,16.569,10.961c4.586,2.879,9.173,5.758,14.369,9.021c-5.903,1.979-11.356,2.369-16.729,2.837
		c-35.264,3.074-70.182,0.978-104.525-7.912c-35.734-9.251-68.758-24.333-98.857-45.906c-16.296-11.68-31.318-24.74-44.91-39.365
		c-15.659-16.848-29.025-35.453-40.153-55.643c-27.024-49.03-37.934-101.547-33.807-157.218
		c2.765-37.301,13.39-72.447,30.459-105.658c3.184-6.194,7.042-12.039,10.427-18.135c1.459-2.628,2.574-3.073,5.248-1.096
		C142.184,235.885,152.178,242.777,162.083,249.79z"/>
	<path fill="#F4FBFC" d="M288.849,188.829c-0.006-1.41,0.593-2.474,1.816-3.183c3.277-1.231,5.903,0.715,8.403,2.113
		c7.941,4.439,16.719,6.559,25.162,9.614c3.575,1.294,5.474,0.274,6.775-3.366c3.754-10.505,6.598-21.318,10.816-31.662
		c0.628-1.539,1.006-3.189,1.921-4.599c0.939-1.447,2.064-2.819,4.038-2.056c1.833,0.709,2.221,2.392,2.043,4.148
		c-0.273,2.68-1.397,5.126-2.291,7.634c-3.355,9.409-6.876,18.757-9.734,28.344c-1.054,3.535,0.015,4.812,3.397,5.406
		c11.158,1.96,22.397,3.216,33.675,4.146c4.217,0.348,5.046-1.041,2.986-4.95c-1.159-2.199-1.345-4.412-1.125-6.765
		c0.216-2.306,1.44-3.643,3.766-3.94c1.826-0.233,3.656-0.157,5.488-0.148c3.477,0.016,5.174,1.687,5.247,5.2
		c0.066,3.143-0.206,6.311,0.592,9.465c0.816-7.705,4.361-14.761,3.901-22.875c-0.688-12.121-0.184-24.31-0.174-36.47
		c0.001-1.664-0.06-3.334,0.283-4.979c0.339-1.628,1.177-2.75,2.971-2.838c1.673-0.081,2.913,0.689,3.645,2.148
		c0.93,1.853,0.792,3.893,0.796,5.886c0.022,12.66-0.005,25.32,0.017,37.98c0.009,5.401,6.432,10.141,11.462,8.026
		c3.4-1.429,6.754-1.564,10.24-1.589c8.161-0.058,16.324-0.027,24.479,0.265c5.219,0.187,6.112,1.251,6.409,6.164
		c0.081,1.334-1.154,3.315,0.924,3.875c1.586,0.427,3.285-0.425,4.703-1.319c1.665-1.05,1.144-2.649,0.611-4.037
		c-3.516-9.165-6.433-18.567-11.221-27.223c-3.464-6.262-6.645-12.669-11.23-18.25c-1.547-1.882-2.615-4.292-0.093-6.136
		c2.623-1.919,4.339,0.246,5.772,2.095c5.541,7.149,9.733,15.1,13.522,23.269c3.644,7.856,7.091,15.8,9.782,24.042
		c0.763,2.336,1.65,3.973,4.568,2.984c12.069-4.09,23.671-9.004,32.986-18.106c2.198-2.148,4.058-4.419,3.825-7.778
		c-0.082-1.18,0.086-2.632,1.158-3.144c3.155-1.506,5.06-4.065,6.837-6.909c0.744-1.191,2.235-1.437,3.602-0.793
		c1.596,0.752,2.404,2.312,1.569,3.708c-4.522,7.565-0.134,12.611,4.458,17.962c7.822,9.115,14.28,19.243,20.82,29.291
		c1.423,2.187,2.972,3.802,5.86,4.026c14.936,1.159,29.799,2.982,44.601,5.289c0.788,0.123,1.6,0.424,2.414-0.14
		c0.061-2.062-3.2-3.312-1.478-5.784c1.719,0.911,3.543,1.669,5.129,2.77c1.939,1.346,3.58,3.011,1.699,5.613
		c-1.417,1.96-0.459,3.279,1.176,4.422c-1.339,1.554-3.03,1.021-4.642,0.732c-20.695-3.708-41.517-5.737-62.576-5.128
		c-18.931,0.548-36.904,4.802-53.868,13.252c-1.641,0.817-3.287,1.657-4.62,2.939c-1.194,1.148-2.634,2.382-1.692,4.263
		c0.964,1.925,2.826,2.15,4.753,1.792c2.311-0.429,4.43-1.399,6.547-2.392c15.434-7.236,31.796-10.524,48.71-11.749
		c19.684-1.426,39.182,0.315,58.658,2.834c2.153,0.279,4.331,0.083,6.484,0.28c1.755,0.161,3.796-0.092,4.537,2.215
		c-0.959,0.244-2.072,0.403-2.032,1.713c0.031,0.995,0.848,1.316,1.726,1.382c0.659,0.049,1.382,0.215,1.974,0.018
		c4.99-1.654,8.227-0.079,10.454,4.764c1.008,2.191,3.406,3.165,5.891,1.406c2.654-1.878,5.288-1.331,7.931,0.002
		c-2.022,4.032-6.173,3.981-9.729,5.083c-3.368,0.22-5.171-1.951-6.593-4.503c-1.612-2.894-3.884-4.167-7.261-4.34
		c-12.466-0.641-24.808-2.677-37.26-3.571c-3.163-0.227-6.313-0.327-9.476-0.375c-2.987-0.045-3.46,1.36-2.274,3.774
		c2.057,4.187,3.933,8.451,5.628,12.799c0.954,2.448,2.888,3.548,5.494,3.526c5.327-0.044,10.665,0.352,15.977-0.286
		c7.012-0.841,7.02-0.863,9.255,5.77c3.168-1.094,5.079-3.657,7.146-5.999c1.321-1.496,2.419-3.202,4.039-4.411
		c1.709-1.276,3.595-2.099,5.393-0.322c1.716,1.695,0.632,3.381-0.474,4.91c-4.147,5.731-9.123,10.639-15.166,14.315
		c-3.428,2.085-5.047,4.831-5.662,8.801c-1.963,12.675-5.346,25.071-7.838,37.649c-0.753,3.799-1.283,7.581-0.905,11.407
		c1.688,17.085,2.099,34.21,1.921,51.365c-0.068,6.536,0.246,6.784,6.689,6.799c12.162,0.027,24.324,0.006,36.486,0.009
		c1.499,0,3.004-0.063,4.496,0.086c2.2,0.218,4.651,0.416,4.565,3.419c-0.086,2.973-2.591,3.194-4.754,3.236
		c-12.327,0.238-24.656,0.076-36.984,0.102c-10.688,0.023-11.085-0.031-12.042,10.491c-1.967,21.631-6.702,42.735-11.303,63.88
		c-1.104,5.071-3.341,9.766-4.733,14.74c-1.763,6.302-1.578,6.9,4.282,9.604c9.123,4.209,17.752,9.194,25.24,15.96
		c3.078,2.782,6.293,5.562,6.589,10.186c-0.122,1.12-0.588,2.056-1.499,2.742c-2.288,0.775-3.294-0.993-4.459-2.329
		c-8.374-9.602-19.039-15.93-30.35-21.356c-2.236-1.073-3.81-0.445-5.04,1.573c-0.874,1.434-1.407,3.003-1.98,4.565
		c-10.315,28.131-24.322,54.22-43.008,77.719c-0.31,0.39-0.59,0.81-0.941,1.162c-4.842,4.858-5,5.064-0.767,11.32
		c1.305,1.929,2.538,3.96,1.773,6.498c-0.33,0.727-0.873,1.223-1.616,1.506c-2.771,0.687-3.728-1.268-4.89-3.18
		c-3.108-5.115-4.841-5.455-9.143-1.136c-7.919,7.95-16.939,14.377-26.81,19.537c-10.335,5.403-21.283,9.157-33.005,10.235
		c-2.178,0.2-4.307-0.047-6.273-1.123l-0.005,0.01c-1.128-4.37-0.25-6.062,4.086-6.202c19.636-0.636,35.703-9.611,50.682-21.261
		c3.036-2.361,5.469-5.369,8.422-7.813c2.279-1.886,1.866-3.624-0.124-5.38c-0.875-0.772-1.728-1.581-2.709-2.209
		c-9.162-5.862-18.818-10.629-29.314-13.685c-3.621-1.054-5.563,0.021-7.058,3.336c-6.038,13.386-12.957,26.264-22.136,37.837
		c-2.185,2.755-4.46,5.386-7.031,7.758c-1.308,1.207-2.628,2.73-4.766,1.564c-1.021-0.641-2.041-1.283-3.062-1.924
		c-0.474-1.829,0.919-2.697,1.956-3.712c12.553-12.294,21.251-27.118,28.196-43.073c1.881-4.321,1.546-5.091-3.175-6.063
		c-14.677-3.02-29.527-4.555-44.514-4.871c-3.67-0.078-5.127,1.424-4.992,5.019c0.112,2.984,0.227,5.996-0.155,8.968
		c-0.35,2.719-0.984,5.642-4.567,5.352c-3.234-0.261-2.872-3.177-3.001-5.426c-0.171-2.986-0.139-5.987-0.039-8.974
		c0.109-3.265-1.07-5.026-4.583-4.904c-6.966,0.242-13.963-0.542-20.903,0.673c-2.836,0.497-5.635,0.457-8.26-0.962
		c-0.642-0.683-1.283-1.366-1.925-2.049c-0.938-3.676,2.073-3.22,3.937-3.488c8.405-1.207,16.879-1.737,25.359-2.068
		c5.849-0.228,6.227-0.446,6.235-6.303c0.034-23.484,0.041-46.968-0.005-70.452c-0.011-5.543-0.602-6.473-5.334-6.132
		c-19.906,1.431-39.939,0.726-59.758,3.535c-6.049,0.857-6.344,1.369-4.742,7.432c3.574,13.524,7.3,27.003,11.388,40.384
		c0.565,1.849,2.44,4.411-0.861,5.92c-2.564-3.812-5.549-7.36-7.333-11.663c-4.687-11.661-8.003-23.726-10.785-35.963
		c-1.038-4.564-2.363-5.233-7.143-4.478c-1.725,0.273-3.562,1.338-4.927-0.747c-0.352-0.64-0.704-1.279-1.055-1.919
		c-0.789-3.936,2.5-3.702,4.644-4.284c5.626-1.527,5.736-1.881,4.342-7.471c-3.183-12.765-4.625-25.84-6.248-38.859
		c-0.965-7.745-1.595-15.548-2.129-23.343c-0.233-3.401-2.021-4.619-5.18-4.636c-5.826-0.03-11.651,0.02-17.477-0.033
		c-2.317-0.021-4.705,0.184-6.625-1.559c-0.122-0.583-0.244-1.167-0.366-1.75c-0.64-3.823,2.39-3.413,4.446-3.523
		c6.141-0.328,12.299-0.046,18.448-0.152c5.198-0.09,6.208-0.712,5.621-5.76c-1.508-12.966-0.184-25.867-0.04-38.805
		c0.115-10.349,1.954-20.509,2.162-30.807c0.117-5.814-0.07-6.045-6.015-6.684c-9.431-1.014-18.707-2.989-28.076-4.386
		c-2.908-0.433-5.984-0.797-8.281-3.06c0.013-1.292,0.026-2.585,0.039-3.877c1.855-1.818,4.024-1.085,6.127-0.725
		c10.481,1.792,20.944,3.664,31.558,4.58c6.166,0.532,6.422,0.713,7.139-5.674c2.323-20.706,7.216-40.903,11.857-61.149
		c1.484-6.473,3.508-12.821,5.285-19.225c1.061-3.823,0.126-5.706-3.945-6.801c-10.616-2.855-20.668-7.288-30.581-12.004
		C290.236,191.307,288.612,190.831,288.849,188.829z"/>
	<path fill="#A6CBDC" d="M599.844,212.87c0.145,2.255,2.075,3.306,3.272,4.85c0.581,0.75,1.747,1.412,1.047,2.499
		c-0.61,0.947-1.839,0.668-2.767,0.466c-13.309-2.882-26.962-3.249-40.35-5.537c-0.491-0.084-1.022-0.256-1.482-0.152
		c-8.68,1.97-12.057-3.83-15.807-10.039c-6.351-10.514-13.428-20.656-22.022-29.443c-4.467-4.568-1.319-8.216-0.319-12.229
		c0.384-1.542,2.157-3.035-0.288-4.048c-2.102-0.871-2.845,0.669-3.378,2.492c-0.696,2.383-0.856,5.331-4.89,4.519
		c-1.324-0.267-2.433,1.57-1.78,2.913c1.771,3.641-0.643,5.619-2.716,7.738c-8.802,8.996-19.652,14.519-31.441,18.441
		c-7.7,2.562-7.352,2.45-10.276-5.134c-5.713-14.818-11.826-29.484-20.936-42.654c-0.471-0.681-0.923-1.413-1.532-1.955
		c-1.193-1.06-1.777-3.889-4.172-1.979c-2.164,1.725-0.378,3.181,0.73,4.611c11.047,14.26,17.319,30.854,23.35,47.582
		c0.957,2.656,0.794,3.947-2.339,4.35c-2.573,0.33-4.909,2.054-7.65,1.536c-0.188-0.332-0.506-0.63-0.459-0.85
		c2.047-9.564,1.468-10.168-7.967-9.928c-7.472,0.19-14.953,0.022-22.43,0.018c-1.499-0.001-3.554-0.614-4.405,0.134
		c-4.49,3.946-8.531,0.442-12.862-0.031c-3.775-0.413-4.217-1.903-4.193-5.005c0.104-13.829,0.044-27.659,0.037-41.489
		c-0.001-1.332,0.023-2.67-0.087-3.995c-0.147-1.773-1.156-2.723-2.976-2.601c-1.918,0.128-1.832,1.616-1.834,2.941
		c-0.016,8.498-0.005,16.995-0.004,25.493c0,6.332,0.008,12.663-0.008,18.995c-0.01,3.949,0.463,7.904-2.295,11.429
		c-1.486,1.899-0.493,4.536-0.735,6.828c-0.155,1.465,0.967,3.873-1.621,3.925c-2.611,0.052-2.283-2.349-2.308-4.145
		c-0.04-2.832-0.178-5.676,0.022-8.494c0.215-3.033-0.888-4.38-3.971-4.001c-0.821,0.101-1.683-0.097-2.494,0.039
		c-1.819,0.304-4.643-1.09-5.189,1.415c-0.534,2.45-1.784,5.575,1.393,7.644c2.15,1.401,1.274,3.612,1.002,5.456
		c-0.268,1.823-2.05,1.425-3.282,1.351c-13.576-0.812-27.045-2.524-40.423-4.965c-3.275-0.598-1.639-2.627-1.196-4.175
		c3.109-10.861,7.009-21.453,10.979-32.021c0.467-1.244,0.842-2.524,1.246-3.791c0.589-1.846,2.069-4.356-0.4-5.255
		c-3.102-1.129-3.052,2.288-3.679,4.049c-4.109,11.557-8.253,23.109-11.97,34.795c-1.334,4.194-2.987,4.832-7.128,3.61
		c-11.812-3.486-23.003-8.431-34.196-13.428c4.818-9.452,10.98-17.939,18.335-25.571c3.196-0.4,4.015-3.631,6.221-5.278
		c6.79-5.069,13.812-9.705,21.156-13.944c3.115-1.798,8.039-2.576,7.429-8.06c13.003-8.194,27.441-12.655,42.431-14.745
		c22.117-3.084,44.199-1.966,65.781,4.14c23.511,6.652,45.392,16.965,65.736,30.519c5.489,3.657,5.505,3.632,8.008-1.828
		c15.661,8.686,30.04,19.156,43.505,30.947c9.982,8.741,19.207,18.184,27.593,28.461C597.68,211.291,598.841,212.016,599.844,212.87
		z"/>
	<path fill="#294186" d="M518.923,600.832c0.369-0.294,0.739-0.587,1.108-0.881c1.667-2.445,4.347-3.541,6.74-4.993
		c25.697-15.591,47.575-35.463,66.165-59.012c3.981-5.043,7.069-10.788,11.926-15.142c0.399-0.597,0.798-1.193,1.198-1.79
		c4.294-10.516,10.875-19.825,15.78-30.039c6.146-12.799,11.34-25.935,15.372-39.519c6.941-23.384,11.075-47.337,13.025-71.602
		c1.609-20.027-0.852-39.879-4.441-59.593c-4.003-21.988-11.776-42.621-22.195-62.315c-2.718-5.138-2.128-6.628,3.297-8.011
		c3.063-1.312,6.126-2.624,9.188-3.936c1.999-0.335,2.446,1.199,3.142,2.53c13.41,25.629,22.709,52.578,27.861,81.132
		c5.256,29.136,5.788,58.263,1.692,87.42c-5.234,37.253-17.614,72.089-37.083,104.396c-16.364,27.155-36.621,50.938-60.765,71.41
		c-23.227,19.694-49.04,35.105-77.055,47.113c-7.63,3.27-13.922,3.626-20.672-0.931c-1.191-0.804-2.787-1.01-4.196-1.491
		c-5.815-0.59-10.335-4.346-15.532-6.45c-2.51-1.016-2.169-2.728,0.405-3.61c5.484-1.88,11.011-3.63,16.491-5.531
		c13.811-4.791,27.565-9.704,40.646-16.286C513.568,602.416,516.267,601.728,518.923,600.832z"/>
	<path fill="#A6CBDC" d="M410.904,647.749c-6.308-2.571-12.036-6.28-17.613-10.031c-6.728-4.526-14.067-5.419-21.708-5.723
		c-25.253-1.005-49.559-6.765-73.134-15.43c-10.186-3.744-20.383-7.807-29.683-13.642c3.359-7.863,8.806-14.022,15.619-19.044
		c4.703-3.466,6.583-3.346,10.718,0.927c7.768,8.029,16.128,15.339,25.406,21.589c11.561,7.788,24.226,13.111,37.559,16.959
		c0.953,0.275,1.948,0.364,3.381,0.037c-0.891-1.96-2.595-1.956-4.027-2.326c-21.969-5.679-40.551-17.158-56.555-33.041
		c-1.418-1.407-2.918-2.728-4.317-4.146c-3.255-3.3-2.981-5.51,1.123-7.805c8.624-4.822,18.003-7.723,27.424-10.488
		c16.737,19.425,34.782,37.517,54.793,53.59c12.068,9.693,24.907,18.294,37.941,26.613c-1.978,0.009-3.957,0.043-5.935,0.02
		C410.2,645.789,410.547,646.752,410.904,647.749z"/>
	<path fill="#362571" d="M610.139,234.714c-27.748-3.28-55.543-6.877-83.447-2.478c-12.265,1.933-24.498,4.685-35.592,10.87
		c-1.996,1.113-4.282,1.854-6.527,2.333c-2.668,0.569-5.076-0.44-6.269-2.949c-1.228-2.581,0.398-4.518,2.361-5.942
		c4.056-2.943,8.612-4.965,13.219-6.899c18.587-7.801,38.044-10.283,58.047-9.98c18.839,0.285,37.403,2.849,55.918,6.008
		c15.694,2.657,31.363,5.551,47.394,5.036c1.649-0.053,3.951-0.314,4.085,1.634c0.13,1.896-2.306,1.304-3.621,1.585
		c-11.632,2.483-23.367,2.409-35.147,1.313C617.099,234.921,613.613,234.882,610.139,234.714z"/>
	<path fill="#2A4183" d="M435.711,708.143c1.235,5.539-1.822,6.834-4.934,6.471c-6.471-0.754-5.262,3.629-4.719,6.844
		c1.199,7.085,2.155,14.185,3.064,21.307c0.304,2.381-0.161,2.77-2.174,3.018c-5.643,0.697-6.476-0.064-7.116-5.581
		c-0.827-7.126-2.082-14.201-2.924-21.325c-0.425-3.591-2.947-2.233-4.401-1.811c-2.619,0.759-4.974,1.379-7.326-0.5
		c-1.376,8.631,1.442,17.261,0.704,25.973c-0.117,1.376,0.874,3.41-0.879,3.989c-2.28,0.753-4.81,1.088-7.211,1.005
		c-1.503-0.052-0.867-1.875-0.882-2.919c-0.065-4.663-0.272-9.342,0.026-13.986c0.385-5.992-1.589-11.781-1.131-17.779
		c0.17-2.234,0.51-3.437,3.033-3.149c14.63,1.668,28.692-2.881,43.066-4.048c2.037-0.165,3.32-0.538,4.535,1.861
		c1.52,3.002,3.93,5.567,6.067,8.232c0.54,0.674,1.088,1.886,2.267,1.426c0.755-0.294,0.983-1.15,1.122-2.047
		c0.321-2.072,0.78-4.132,1.331-6.157c2.092-7.689,2.56-8.001,11.204-7.985c-1.931,6.459-3.402,13.094-5.928,19.299
		c-2.099,5.155-1.441,9.838,0.078,14.716c0.938,3.013,0.419,5.166-3.058,5.713c-2.759,0.434-5.734,0.65-5.598-3.348
		c0.305-8.959-5.524-14.626-10.679-20.686C441.124,714.179,438.91,711.758,435.711,708.143z"/>
	<path fill="#D4261F" d="M539.9,76.96c1.166,7.347-5.457,16.518-12.563,18.606c-2.921,0.858-3.694,2.243-3.468,4.904
		c0.235,2.767,0.996,4.393,3.872,2.064c1.285-1.041,2.53-0.996,3.403,0.335c0.957,1.459-0.792,1.923-1.421,2.643
		c-2.424,2.779-5.276,4.482-9.119,2.713c-3.659-1.684-6.68-3.959-5.651-8.523c0.742-3.29-1.024-4.28-3.435-5.543
		c-6.775-3.549-11.065-12.638-9.518-19.574c2.23-10.001,9.335-15.998,18.47-16.798c8.397-0.736,16.851,6.025,18.854,12.83
		C539.969,72.806,539.544,74.87,539.9,76.96z"/>
	<path fill="#D32720" d="M666.641,172.981c-0.501-1.377-0.659-2.216-1.083-2.889c-0.825-1.311,0.376-1.776,0.968-2.334
		c1.588-1.497,1.377,0.679,1.715,1.101c3.273,4.092,6.412,8.291,9.584,12.464c0.579,0.762,1.539,1.577,0.262,2.448
		c-0.9,0.614-1.838,1.305-2.95-0.022c-1.044-1.246-2.365-2.654-4.22-1.234c-2.567,1.965-7.219,4.216-7.076,6.038
		c0.244,3.109,3.201,6.285,5.635,8.847c1.692,1.78,3.557-0.848,4.512-1.797c2.15-2.134,8.274-2.713,4.114-8.18
		c-0.59-0.775,0.222-1.37,1.14-1.693c0.808-0.284,1.036-0.49,1.728,0.489c3.203,4.536,6.613,8.93,10.063,13.284
		c1.062,1.34-0.181,1.689-0.69,2.349c-0.888,1.152-1.693,0.603-2.349-0.283c-2.184-2.952-4.401-1.333-6.37,0.118
		c-5.67,4.18-11.102,8.695-16.905,12.674c-2.104,1.443-3.492,2.376-1.719,4.774c1.026,1.388,0.074,2.032-0.79,2.773
		c-1.947,1.668-1.744-0.95-2.083-1.364c-3.214-3.918-6.121-8.086-9.269-12.062c-0.868-1.096-0.506-1.553,0.205-2.395
		c1.126-1.335,1.729-0.496,2.747,0.199c2.512,1.716,11.998-2.643,12.415-5.672c0.234-1.702-1.607-2.273-2.381-3.456
		c-4.089-6.254-4.197-6.282-10.058-1.705c-2.125,1.659-7.219,2.579-2.443,6.88c0.058,0.053-0.933,1.527-1.629,2.101
		c-1.059,0.873-1.914,0.026-2.485-0.767c-3.135-4.361-6.107-8.843-9.356-13.115c-1.121-1.475-0.135-1.937,0.562-2.759
		c1.098-1.294,1.837-0.173,2.263,0.52c1.743,2.836,3.698,1.768,5.61,0.39c6.224-4.485,12.418-9.011,18.598-13.556
		C665.818,174.478,666.744,173.704,666.641,172.981z"/>
	<path fill="#D4261F" d="M393.045,62.809c0.375,0.513,0.785,1.004,1.117,1.543c0.851,1.379,4.104-0.578,3.569,2.14
		c-0.558,2.836-3.311,0.928-5.005,1.461c-3.693,1.162-7.514,1.022-11.317,0.919c-1.076-0.029-2.449,0.329-2.552-1.508
		c-0.089-1.577,0.46-2.062,2.122-2.556c5.581-1.66,2.421-6.364,2.702-9.675c0.236-2.783-1.486-4.679-4.983-4.308
		c-2.618,0.278-6.408-0.212-7.195,1.929c-1.176,3.198-1.179,7.066,0.22,10.658c0.714,1.833,1.999,1.455,3.21,1.485
		c1.48,0.036,2.017,0.641,2.054,2.102c0.042,1.67-0.893,1.886-2.195,1.883c-5.163-0.012-10.326,0.007-15.488-0.002
		c-1.166-0.002-2.378,0.079-2.401-1.685c-0.018-1.337,0.226-2.432,1.831-2.254c3.381,0.376,3.165-1.803,3.194-4.089
		c0.098-7.799-1.779-15.505-1.058-23.326c0.18-1.95-0.692-2.771-2.605-2.6c-1.641,0.146-2.422-0.467-2.373-2.263
		c0.048-1.757,1.143-1.737,2.332-1.738c5.163-0.004,10.326,0.009,15.488,0.003c1.266-0.002,2.262,0.141,2.236,1.836
		c-0.022,1.418-0.496,1.887-1.954,2.191c-6.588,1.373-2.036,6.44-2.835,9.682c-0.822,3.339,2.576,1.799,4.198,2.255
		c0.154,0.043,0.334,0.025,0.498,0.003c2.248-0.3,5.784,1.111,6.495-0.81c1.086-2.933,0.519-6.529,0.404-9.835
		c-0.057-1.658-1.682-1.343-2.746-1.307c-1.881,0.064-2.195-0.945-2.137-2.494c0.071-1.877,1.452-1.496,2.524-1.504
		c4.996-0.035,9.993-0.038,14.989,0.011c0.883,0.009,2.1-0.389,2.4,1.027c0.345,1.625-0.733,1.864-1.987,2.093
		c-0.946,0.173-1.838,0.646-2.754,0.986C391.953,44.312,391.948,53.561,393.045,62.809z"/>
	<path fill="#D5271D" d="M267.888,88.881c-6.883,6.93-16.344,9.117-24.647,13.437c-1.321,0.687-2.223,0.513-2.931-0.645
		c-0.668-1.092-0.05-2.144,0.887-2.437c3.216-1.006,2.104-3.128,1.332-4.985c-1.065-2.563-2.656-4.928-3.519-7.544
		c-0.47-1.424-0.848-0.892-1.823-0.97c-2.066-0.165-2.496-1.656-1.888-3.617c1.473-4.754-2.507-10.853-7.173-10.819
		c-1.002,0.007-1.589-0.151-1.914-0.866c-0.555-1.22,0.474-1.899,1.293-2.313c4.135-2.09,8.325-4.072,12.495-6.092
		c5.959-6.023,18.362-6.358,25.092,0.574C272.188,69.914,273.629,82.205,267.888,88.881z"/>
	<path fill="#2A4184" d="M46.756,456.83c-1.869-0.402-4.047,0.641-6.1-0.699c-0.983-0.641-2.545-0.565-3.047,0.701
		c-1.633,4.114-3.271,1.954-5.722,0.66c-2.19-1.156-1.394-2.602-0.726-3.149c2.651-2.171,1.691-4.222,0.352-6.473
		c-7.007-11.774,1.106-26.677,15.676-27.145c10.763-0.346,18.616,3.819,20.699,11.913c3.672,14.269-6.135,23.781-18.929,24.189
		C48.292,456.849,47.626,456.83,46.756,456.83z"/>
	<path fill="#D4271F" d="M107.783,234.712c-2.489,7.068-4.556,9.657-13.608,5.224c-5.787-2.834-7.623-2.53-9.338,1.449
		c-0.193,0.447-0.779,1.02-0.654,1.265c1.906,3.734,6.259,3.759,9.234,5.932c1.056,0.771,2.668,1.4,3.527-0.822
		c0.745-1.929,2.188-2.225,3.866-0.874c1.95,1.571-0.514,2.043-0.885,2.8c-2.076,4.231-3.657,8.74-6.59,12.527
		c-0.792,1.022-0.723,2.909-3.074,1.791c-2.354-1.12-0.666-2.264-0.233-3.105c0.985-1.911,0.357-2.864-1.361-3.75
		c-7.099-3.662-14.175-7.367-21.225-11.122c-1.993-1.061-3.595-1.622-4.577,1.206c-0.428,1.232-1.292,1.405-2.675,0.717
		c-1.875-0.933-0.796-1.78-0.299-2.71c3.373-6.315,6.684-12.665,10.174-18.915c2.425-4.343,5.647-8.131,11.209-7.265
		c5.368,0.836,7.393,4.296,8.022,11.993c2.865,0,5.743,0,8.62,0c1.751,2.2,4.175,1.2,6.33,1.237
		C106.074,232.322,108.003,231.839,107.783,234.712z"/>
	<path fill="#2B4182" d="M357.901,718.96c0,0.738-0.001,1.736,0,2.734c0.003,3.524-5.683,4.418-4.348,7.958
		c1.363,3.613,1.901,6.819,0.445,10.374c-0.235,0.574,0.191,1.468-0.108,1.956c-0.99,1.617,2.678,3.844-0.065,4.497
		c-2.319,0.553-5.18-0.373-7.557-1.283c-0.835-0.32-2.055-2.395-1.16-3.9c0.752-1.263,0.746-2.498,0.782-3.814
		c0.146-5.355-5.401-9.331-10.622-7.719c-1.018,0.314-1.053,0.921-1.393,1.677c-0.916,2.038-0.794,4.15-0.983,6.28
		c-0.305,3.442-0.646,6.6-5.985,5.241c-2.681-0.683-3.275-1.487-2.988-3.713c1.086-8.423,1.85-16.915,3.551-25.214
		c0.544-2.654-1.455-6.52,2.175-8.053c2.805-1.184,5.8,0.265,8.697,0.734c4.769,0.772,9.742,0.296,14.203,2.878
		C356.148,711.676,358.272,714.398,357.901,718.96z"/>
	<path fill="#294184" d="M221.702,681.752c-2.991,5.468-6.465,10.66-8.882,16.456c-1.018,2.442-2.061,4.056-5.238,1.982
		c-2.336-1.525-4.216-2.004-2.272-5.457c4.774-8.482,9.012-17.266,13.672-25.815c0.71-1.302,1.248-4.488,3.296-3.229
		c2.44,1.501,6.934,1.541,6.631,5.907c-0.543,7.825,1.457,15.492,0.994,24.863c3.704-6.844,7.026-12.277,9.623-18.037
		c1.634-3.625,3.053-1.655,5.075-0.853c2.432,0.964,3.897,1.674,2.238,4.707c-4.753,8.69-9.272,17.508-13.838,26.3
		c-0.759,1.461-1.695,2.706-3.036,3.649c-1.842-2.804-7.32-1.527-7.129-6.833c0.28-7.759,0.072-15.535,0.072-23.304
		C222.507,681.977,222.105,681.865,221.702,681.752z"/>
	<path fill="#2A4183" d="M88.57,560.858c5.501-2.9,11.358-5.297,16.395-8.854c4.232-2.988,3.741,1.35,5.156,2.484
		c2.131,1.71,1.38,3.28-0.823,4.486c-9.646,5.282-19.288,10.573-28.876,15.959c-0.904,0.508-1.483,0.647-1.919-0.181
		c-1.813-3.445-4.309-6.547-1.23-10.905c4.191-5.93,7.725-12.325,11.084-19.252c-5.715,3.152-11.413,6.336-17.158,9.433
		c-1.334,0.719-3.442,2.875-4.023-0.053c-0.398-2.005-5.758-3.796-0.476-6.621c9.563-5.115,18.886-10.682,28.269-16.13
		c1.206-0.7,2.007-0.281,2.501,0.588c2.011,3.54,4.403,6.714,1.006,11.21c-4.023,5.323-7.108,11.356-10.599,17.08
		C88.108,560.355,88.339,560.607,88.57,560.858z"/>
	<path fill="#2A4184" d="M158.968,648.097c4.546-4.833,9.21-9.562,13.586-14.544c2.121-2.414,3.431-1.611,5.076,0.311
		c1.344,1.57,3.552,2.595,0.803,5.08c-4.32,3.905-8.367,8.122-12.402,12.33c-3.88,4.047-7.599,8.249-11.245,12.226
		c-6.229-3.085-6.664-7.662-4.542-13.651c2.09-5.9,3.213-12.143,4.513-17.262c-4.818,4.765-10.191,10.079-15.671,15.5
		c-2.683-2.22-4.454-4.362-7.611-5.807c6.597-6.457,12.885-12.608,19.169-18.763c1.19-1.165,2.218-2.577,3.59-3.456
		c1.71-1.096,1.657-4.675,3.757-4.011c2.32,0.733,4.352,2.914,6.03,4.874c0.644,0.752,0.186,2.691-0.144,3.994
		c-1.891,7.475-3.895,14.921-5.86,22.377C158.334,647.563,158.651,647.83,158.968,648.097z"/>
	<path fill="#2A4182" d="M151.004,613.133c0.009,9.702-10.736,20.553-20.445,20.647c-9.555,0.093-18.57-9.077-18.587-18.905
		c-0.016-9.4,11.237-20.149,21.071-20.128C142.457,594.767,150.995,603.508,151.004,613.133z"/>
	<path fill="#D3271E" d="M142.971,182.738c-10.591,5.447-17.093,4.635-24.798-3.095c-9.454-9.484-6.091-25.723,6.414-30.803
		c1.165-0.473,2.3-0.855,3.164-1.961c-3.083-0.096-5.605-1.193-6.668-3.962c-0.617-1.607-0.525-3.735,1.275-4.943
		c1.516-1.017,2.84-2.627,5.175-1.306c1.99,1.126,3.757,2.167,3.488,4.759c-0.415,3.992,0.024,6.081,5.253,6.905
		c9.891,1.558,19.662,15.267,13.543,26.579c-1.476,0.493-1.95,4.339-4.475,1.343c-1.202-9.819-7.979-15.184-15.853-19.55
		c-2.69-1.491-5.754-2.25-8.191,0.55c-2.517,2.891-1.408,5.856,0.323,8.701c2.106,3.462,5.013,6.121,8.325,8.395
		c1.77,1.215,3.603,2.367,5.05,3.998c1.16,1.511,2.92,1.049,4.444,1.37C141.154,180.077,143.09,180.22,142.971,182.738z"/>
	<path fill="#2A4280" d="M377.292,748.728c-8.043,0.033-13.488-3.089-15.749-8.865c-0.685-1.75-1.862-4.41,0.619-4.85
		c2.051-0.363,5.425-2.402,6.911,1.834c1.247,3.553,9.874,5.755,12.725,3.259c1.948-1.705,2.695-3.673-0.494-5.611
		c-3.602-2.189-7.722-2.216-11.491-3.639c-6.033-2.278-8.192-5-7.909-11.268c0.212-4.707,3.948-8.683,9.277-9.874
		c8.77-1.96,15.709,0.632,18.74,6.964c0.94,1.964,2.067,5.12,0.287,5.674c-2.076,0.647-5.94,0.551-7.246-1.951
		c-2.354-4.509-6.128-3.721-9.763-3.51c-1.176,0.068-3.039,0.359-3.246,2.333c-0.201,1.914,0.508,3.074,2.475,3.653
		c4.013,1.182,7.978,2.53,11.948,3.853c5.262,1.754,7.715,5.057,7.536,10.063c-0.187,5.222-3.885,9.982-8.841,10.895
		C381.015,748.068,379.104,749.501,377.292,748.728z"/>
	<path fill="#294282" d="M322.821,711.297c-5.325-0.758-10.255-2.186-15.244-3.347c-1.218-0.283-3.918-1.852-4.695,1.6
		c-0.68,3.018,0.199,4.544,3.097,5.156c3.16,0.667,6.288,1.585,9.482,1.963c2.73,0.324,4.448,0.718,3.527,4.163
		c-0.782,2.925-1.3,4.919-5.11,3.07c-2.555-1.239-5.586-1.557-8.44-2.101c-2.971-0.566-5.632-1.486-6.084,3.63
		c-0.299,3.386-0.247,4.018,3.169,4.454c4.458,0.568,8.719,2.362,13.262,2.957c2.707,0.354,2.611,2.75,1.725,4.671
		c-0.626,1.358,0.031,3.988-3.573,2.906c-6.782-2.037-13.85-3.105-20.762-4.735c-2.901-0.684-5.043-1.154-3.566-5.779
		c2.842-8.897,4.505-18.202,6.202-27.421c0.735-3.997,2.621-4.569,5.952-3.723c6.107,1.552,12.185,3.265,18.36,4.482
		c3.529,0.695,5.213,1.594,2.933,5.278C322.605,709.251,322.876,710.428,322.821,711.297z"/>
	<path fill="#2A4184" d="M101.729,579.757c-0.682,0.609-1.116,1.067-1.617,1.431c-2.37,1.717-4.728,3.455-7.149,5.099
		c-4.064,2.761-6.6,1.896-8.643-2.659c-0.835-1.862,0.658-2.557,1.536-3.18c8.733-6.192,17.533-12.293,26.388-18.31
		c0.816-0.555,2.222-2.055,3.16,0.406c0.786,2.062,4.58,3.443,1.986,6.167c-2.208,2.319-5.065,4.104-7.854,5.755
		c-1.632,0.966-1.947,1.559-0.524,2.814c0.247,0.218,0.467,0.478,0.653,0.749c1.925,2.805,3.331,7.073,5.916,7.978
		c2.174,0.761,5.324-2.923,7.837-5c1.998-1.651,3.801-2.768,5.833,0.933c1.647,2.999,2.9,3.945-0.933,6.345
		c-8.522,5.336-16.594,11.412-24.669,17.43c-3.45,2.571-4.005-1.022-5.235-2.284c-1.048-1.074-3.337-3.034,0.081-4.835
		c2.997-1.58,5.509-4.058,8.446-5.779c2.349-1.376,2.603-2.576,0.928-4.664C105.733,585.492,103.826,582.649,101.729,579.757z"/>
	<path fill="#D32723" d="M420.823,70.993c-9.655,0.166-19.366-9.617-18.761-20.036c0.591-10.175,7.11-18.369,17.956-19.223
		c12.314-0.97,20.376,8.145,20.532,19.457C440.683,60.902,432.935,70.936,420.823,70.993z"/>
	<path fill="#2A4183" d="M78.139,485.659c-7.824,2.083-15.793,3.741-23.437,6.352c-10.727,3.664-16.861-5.843-17.707-13.4
		c-1.205-10.758,3.194-15.177,13.059-17.008c6.945-1.289,13.684-3.686,20.719-5.644c0.504,2.952,2.362,6.924,1.146,8.455
		c-1.534,1.932-5.574,1.876-8.536,2.669c-4.69,1.256-9.386,2.489-14.072,3.763c-3.619,0.984-5.777,3.297-5.182,7.123
		c0.648,4.164,4.41,6.634,8.201,5.671c6.432-1.634,12.979-2.993,19.189-5.256c3.799-1.385,5.477-1.58,5.923,3.027
		c0.134,1.382,0.384,2.884,0.599,4.327L78.139,485.659z"/>
	<path fill="#2B4182" d="M176.861,675.85c-0.043-7.773,5.307-11.95,7.973-17.399c1.341-2.742,3.655-5.003,5.045-7.728
		c2.057-4.033,3.913-3.951,7.554-1.424c2.757,1.913,1.953,2.875,0.741,4.779c-3.825,6.008-7.86,11.911-11.251,18.16
		c-2.826,5.208,0.195,9.415,6.071,9.552c2.337,0.055,3.909-0.908,4.843-2.743c3.102-6.094,7.516-11.329,10.996-17.155
		c1.738-2.909,2.943-3.563,5.933-1.327c2.505,1.874,3.854,2.66,1.403,5.883c-4.101,5.393-7.676,11.22-11.103,17.079
		c-2.851,4.874-8.44,8.468-15.238,6.105C182.734,687.167,176.426,681.308,176.861,675.85z"/>
	<path fill="#CE2922" d="M185.956,100.478c-0.025,5.671,8.454,18.381,13.8,20.594c3.529,1.461,6.733,1.244,9.105-2.183
		c2.614-3.778,0.212-6.87-1.529-9.96c-0.996-1.769-2.346-0.239-3.468,0.049c-1.171,0.301-2.076,1.525-3.148-0.499
		c-1.079-2.036,0.865-1.805,1.412-2.234c3.726-2.919,7.626-5.614,11.387-8.49c0.907-0.693,1.459-0.544,2.002,0.197
		c0.498,0.68,1.835,1.306,0.533,2.352c-3.335,2.68-1.161,4.679,0.661,6.912c1.431,1.755,2.468,3.827,3.852,5.626
		c0.766,0.996,1.411,1.586,0.229,2.822c-1.069,1.118-2.028,1.025-2.931,0.234c-2.116-1.852-3.111-1.326-3.919,1.255
		c-3.009,9.609-18.346,16.092-28.95,4.885c-11.539-12.195-6.338-29.551,8.055-33.28c1.201-0.311,2.885-1.071,3.224-2.022
		c2.411-6.766,4.553-1.536,6.164,0.262c1.712,1.911,2.597,4.53,4.573,6.339c0.795,0.728,1.237,1.575,0.434,2.601
		c-0.939,1.2-1.821,0.838-2.988,0.172c-2.529-1.441-4.927-3.16-7.854-3.84C191.655,91.121,185.979,95.457,185.956,100.478z"/>
	<path fill="#D22822" d="M559.89,116.91c-7.551,0.096-17.287-6.776-18.773-12.54c-1.114-4.322,1.405-7.911,3.246-11.469
		c2.171-4.196,4.792-8.159,7.173-12.248c1.238-2.126,1.919-4.235-0.523-6.115c-0.795-0.612-1.441-1.431-0.702-2.555
		c1.004-1.526,2.156-0.379,2.974,0.047c4.196,2.187,8.273,4.601,12.464,6.797c1.117,0.585,2.31,1.114,1.898,2.442
		c-0.438,1.41-1.47,1.957-3.114,1.064c-1.945-1.057-3.364-0.164-4.355,1.763c-2.978,5.786-5.95,11.578-9.093,17.275
		c-2.193,3.973-1.112,6.719,2.571,8.956c4.14,2.514,9.138,2.576,11.166-0.636c3.48-5.51,6.578-11.276,9.556-17.079
		c0.963-1.876,1.132-4.284-1.29-5.632c-1.885-1.049-0.093-1.938,0.146-2.707c0.301-0.967,1.085-1.165,2.268-0.397
		c2.985,1.939,6.215,3.497,9.245,5.373c0.617,0.382,2.505,0.453,1.248,2.282c-0.636,0.925-0.638,2.15-2.305,1.677
		c-4.287-1.217-5.68,2.075-7.445,4.852c-3.228,5.079-5.026,11-9.368,15.438C564.508,115.922,561.716,116.853,559.89,116.91z"/>
	<path fill="#CE2924" d="M276.032,82.943c3.016-0.316,3.491-2.79,3.825-4.983c1.453-9.552,2.768-19.126,4.024-28.706
		c0.258-1.967-0.151-3.752,2.68-4.495c2.458-0.645,2.825,0.604,3.999,2.069c6.456,8.055,12.725,16.243,18.69,24.667
		c0.473,0.668,1.072,1.297,1.738,1.767c1.255,0.886,4.037,0.583,3.583,2.636c-0.441,1.995-3.027,1.857-4.908,2.302
		c-3.011,0.712-5.913,1.881-8.919,2.621c-0.923,0.227-2.295,0.618-2.876-1.078c-0.38-1.109-0.456-1.727,0.759-2.197
		c1.364-0.528,2.378-1.74,1.113-2.842c-1.443-1.257-1.087-4.157-4.135-4.01c-3.37,0.163-6.2,1.992-9.467,2.484
		c-1.908,0.287-1.002,2.503-1.087,3.869c-0.114,1.842,1.034,2.648,2.794,2.769c1.393,0.096,3.102-0.402,3.105,2.057
		c0.003,2.391-1.697,1.928-3.08,2.206c-3.666,0.737-7.047,2.597-10.857,2.785C275.278,85.908,274.55,84.702,276.032,82.943z"/>
	<path fill="#D22820" d="M589.877,103.093c-0.366-1.895,0.718-4.057-0.996-5.685c-1.506-1.43,0.077-1.981,0.749-2.698
		c1.162-1.241,1.626,0.235,2.275,0.74c3.495,2.721,6.939,5.509,10.457,8.202c0.812,0.622,2.504,0.616,1.816,2.171
		c-0.393,0.888-1.036,1.959-2.685,1.368c-2.513-0.901-2.669,0.936-2.623,2.755c0.021,0.83,0.182,1.712-0.032,2.483
		c-0.621,2.239-2.354,5.565-0.117,6.43c2.79,1.079,5.725-1.804,8.43-3.216c1.282-0.669,1.097-2.756-0.097-3.939
		c-1.206-1.194-0.651-1.848,0.262-2.787c1.031-1.061,1.594-0.359,2.384,0.269c2.806,2.234,5.701,4.356,8.463,6.642
		c0.566,0.468,2.069,0.923,1.039,2.168c-0.579,0.699-1.154,1.66-2.406,1.341c-7.654-1.95-13.401,3.129-19.73,5.689
		c-3.597,1.455-5.451,5.425-7.519,8.732c-0.753,1.205-1.219,2.352,0.655,3.187c1.672,0.745,2.163,2.085,0.776,3.551
		c-1.695,1.791-2.233-0.457-3.109-1.088c-3.97-2.862-7.921-5.759-11.727-8.831c-0.735-0.593-2.629-1.202-1.431-2.938
		c1.111-1.61,2.275-1.592,3.451-0.034c1.275,1.688,2.318,1.108,3.616-0.154c3.601-3.499,6.384-7.387,6.905-12.554
		C589.075,110.965,589.475,107.032,589.877,103.093z"/>
	<path fill="#2B4183" d="M295.015,697.403c-2.045,5.129-6.239,8.71-9.349,13.022c-4.011,5.56-8.545,10.74-12.626,16.254
		c-1.15,1.554-1.798,2.613-3.751,1.26c-1.755-1.216-5.319,0.131-5.338-3.519c-0.064-12.464-0.025-24.93-0.025-37.833
		c2.402,0.828,4.38,1.463,6.322,2.192c2.016,0.756,3.336,2.069,2.692,4.414c-1.7,6.188-0.714,12.505-1.021,18.76
		c-0.07,1.422-0.505,2.825-1,5.442c4.415-6.054,8.284-11.147,11.922-16.399C287.258,694.616,287.174,694.558,295.015,697.403z"/>
	<path fill="#AACCDE" d="M518.923,600.832c-16.698,9.758-34.807,16.054-53.183,21.705c-4.402,1.354-8.774,2.804-13.724,4.391
		c6.016,3.063,11.504,5.856,16.991,8.65c-1.286,1.772-4.81-0.017-5.162,3.242c-9.03-3-17.154-7.745-25.023-12.983
		c17.067-0.139,32.338-5.735,46.552-14.917c6.697-4.326,12.931-9.104,18.61-14.702c5.774-5.692,7.841-5.297,11.453,1.927
		C516.253,599.777,516.847,601.102,518.923,600.832z"/>
	<path fill="#2C417D" d="M78.042,485.737c0.252,0.186,0.588,0.32,0.745,0.567c4.312,6.762,2.31,11.911-3.901,16.252
		c-1.512,1.057-3.209,2.341-3.959,4.888c7.645,1.34,18.406-3.008,19.339,10.254c-5.793-0.726-11.972-1.195-18.018-2.357
		c-4.518-0.868-8.803-0.79-13.014,0.833c-8.187,3.156-8.163,3.218-11.176-5.308c10.651-1.585,17.575-8.224,23.334-16.777
		c1.974-2.931,4.789-5.368,6.744-8.427C78.139,485.659,78.042,485.737,78.042,485.737z"/>
	<path fill="#D22720" d="M65.135,270.819c5.247,1.676,10.605,3.078,15.699,5.135c2.871,1.16,4.297,0.747,5.073-2.096
		c0.295-1.082,0.081-2.667,1.967-1.565c0.986,0.577,2.499,0.628,1.662,2.747c-2.089,5.288-3.795,10.726-5.715,16.082
		c-0.315,0.879-0.754,1.828-2.127,1.073c-1.071-0.589-2.074-0.858-1.248-2.487c1.346-2.655-0.21-3.688-2.585-4.468
		c-7.567-2.485-15.15-4.951-22.59-7.782c-3.371-1.282-3.469,0.46-3.193,2.682c0.447,3.587,3.026,5.758,5.839,7.533
		c1.437,0.907,2.664,1.992,1.819,3.492c-0.855,1.517-2.246,0.292-3.444-0.226c-13.807-5.965-10.932-2.137-6.652-16.271
		c0.605-1.998,1.632-3.868,2.464-5.797c1.586-1.573,3.556-1.183,5.065-0.339C59.696,269.945,62.506,269.989,65.135,270.819z"/>
	<path fill="#D6261D" d="M150.804,140.935c-1.654-0.921-2.497-2.49-3.489-4.024c-1.554-2.402-3.836-3.892-6.765-2.701
		c-1.515,0.616-2.632,0.707-3.274-0.768c-0.6-1.379,0.981-1.745,1.595-2.6c6.63-9.23,15.319-5.02,23.551-3.743
		c3.881,0.602,7.746,1.305,11.618,1.962c1.242-0.917,1.451-3.742,4.033-2.181c2.708,3.236,5.442,6.451,8.108,9.722
		c0.742,0.911,2.502,1.54,1.291,3.221c-1.061,1.474-2.749,1.239-4.139,1.011c-5.978-0.983-11.937-2.093-17.88-3.275
		c-3.822-0.76-7.588-1.803-11.412-2.544c-0.966-0.187-3.065-0.874-2.04,1.705C154.039,140.783,154.039,140.783,150.804,140.935z"/>
	<path fill="#D62620" d="M645.874,174.037c-3.456,2.935-6.892,5.894-10.383,8.787c-0.949,0.786-1.89,2.699-3.13,1.7
		c-1.106-0.891-1.852-2.682-1.54-4.458c0.647-3.681,0.997-7.446,2.015-11.021c1.422-4.998,0.911-10.369,3.141-15.175
		c1.065-2.576,2-5.036-0.525-7.491c-1.009-0.981-0.351-2.476,0.369-3.643c1.173-1.779,1.315-3.734,0.588-5.642
		c-0.402-1.056-0.791-1.707,0.601-2.246c0.939-0.363,1.673-0.868,2.54,0.162c3.404,4.045,8.669,6.88,6.468,13.924
		c-1.681,5.38-2.136,11.155-2.97,16.779c-0.25,1.684-0.864,3.567,0.595,5.119C647.218,169.928,646.695,171.879,645.874,174.037z"/>
	<path fill="#D32720" d="M329.69,35.831c0.658,0.454,1.867-1.667,2.123,0.43c0.133,1.089,0.421,2.27-1.279,2.737
		c-2.921,0.802-2.915,3.265-2.535,5.557c1.232,7.422,2.748,14.799,3.867,22.237c0.407,2.703,2.15,2.027,3.645,2.076
		c1.555,0.051,2.49,0.35,2.415,2.231c-0.067,1.705-1.105,1.591-2.291,1.853c-4.789,1.059-9.737,1.27-14.443,2.833
		c-1.008,0.335-2.795,0.911-3.193-1.143c-0.337-1.739,0.105-2.838,2.244-2.855c1.717-0.013,2.843-1.013,2.475-2.916
		c-1.518-7.854-3.218-15.676-4.551-23.56c-0.401-2.369-0.96-3.632-3.577-3.397c-1,0.09-2.492,0.45-2.585-1.412
		c-0.093-1.864,1.697-2.18,2.651-2.362C319.632,37.191,324.67,36.572,329.69,35.831z"/>
	<path fill="#D02820" d="M448.017,66.883c-3.051-7.444-0.612-17.859,5.385-22.992c7.113-6.088,14.471-6.571,22.456-1.667
		c1.192,0.732,2.323,2.1,4.343,0.886c3.535-2.126,3.966,0.554,3.638,3.068c-0.44,3.375-1.376,6.682-1.964,10.042
		c-0.215,1.229-0.768,1.708-1.932,1.712c-1.11,0.003-1.848-0.303-2.041-1.591c-0.263-1.758-0.802-3.475-1.07-5.233
		c-0.672-4.418-3.305-7.323-7.496-8.041c-4.561-0.782-7.189,2.439-9.063,6.11c-0.932,1.826-1.51,3.832-2.248,5.757
		c-1.907,5.309-3.532,10.622-0.215,16.002c0.698,0.686,1.396,1.372,2.095,2.058c0.429,1.352,2.895,1.456,2.216,3.417
		c-0.432,1.248-1.456,1.028-2.415,0.533c-0.598-0.07-1.196-0.14-1.794-0.211C454.274,73.792,451.013,70.47,448.017,66.883z"/>
	<path fill="#D9241F" d="M697.8,280.696c2.966-5.501,6.2-10.834,9.923-15.862c1.119-0.743,2.712-1.781,1.311-3.031
		c-2.905-2.591-1.595-3.547,1.229-3.932c2.621-0.357,2.901-2.347,3.506-4.213c-0.185-1.705-1.774-3.919,1.391-4.495
		c2.801-0.509,1.701,2.261,2.444,3.384c4.857,7.336,0.679,13.387-3.338,19.248c-3.042,4.438-5.74,9.059-8.304,13.772
		c0.365,1.129,2.324,0.724,2.222,2.286c-0.11,1.692-1.584,1.575-2.601,1.668c-3.204,0.293-5.992,1.778-8.897,2.904
		c-1.07,0.415-2.035,1.414-3.064,0.226c-0.974-1.124-0.828-2.43-0.096-3.69C695.086,286.277,696.774,283.657,697.8,280.696z"/>
	<path fill="#D4261D" d="M119.98,214.944c-5.764,7.069-10.213,7.735-17.711,2.805c-4.352-2.861-9.024-5.283-13.141-8.44
		c-3.373-2.588-5.65-2.937-7.348,1.405c-2.823-1.382-2.479-3.062-1.049-5.143c2.67-3.888,5.243-7.846,7.745-11.845
		c0.663-1.06,1.075-1.727,2.401-0.895c0.966,0.606,2.41,0.788,1.208,2.407c-2.249,3.029-0.038,4.134,2.106,5.759
		c2.576,1.953,5.811,3.022,7.81,5.741c2.244,2.769,5.57,3.814,8.574,5.369c2.084,1.079,4.132,0.691,6.067-0.354
		c1.087-0.587,1.996-2.094,3.365-0.808C121.309,212.165,120.837,213.612,119.98,214.944z"/>
	<path fill="#BF2F2E" d="M119.98,214.944c-0.208-1.872,0.947-4.744-3.162-2.435c-4.738,2.663-11.904-0.491-14.816-5.772
		c2.583,1.346,5.128,2.773,7.759,4.019c4.497,2.129,7.592,0.918,10.126-3.823c2.154-4.028,1.305-7.601-2.486-10.183
		c-3.9-2.657-7.871-5.209-11.743-7.906c-3.016-2.101-5.896-4.775-9.382-0.803c-0.867,0.988-1.413,0.235-1.964-0.327
		c-0.654-0.667-1.565-1.245-0.442-2.37c0.668-0.67,0.954-1.707,1.575-2.441c1.542-1.821,3.366-3.334-0.984-3.962
		c-3.217-0.465-3.729-3.177-3.569-6.108c0.141-2.587,2.082-3.538,3.877-3.812c2.659-0.406,4.702,1.068,5.663,3.734
		c0.164,0.457,0.618,0.94,0.542,1.333c-1.356,6.949,3.384,9.414,8.409,11.976c3.193,1.628,6.212,3.715,9.024,5.954
		C127.115,198.95,128.667,205.259,119.98,214.944z"/>
	<path fill="#D5271F" d="M668.656,238.927c-3.123-8.235,1.829-15.524,8.425-20.652c6.727-5.23,15.891-4.663,22.7,0.74
		c1.336,1.995,1.171,3.624-1.144,4.733c-9.723,0.641-17.873,4.502-24.268,11.928C672.61,237.009,672.391,241.075,668.656,238.927z"
		/>
	<path fill="#2A4181" d="M238.051,715.165c4.95-10.568,9.959-21.105,14.771-31.732c0.61-1.347,0.597-1.778,2.244-1.207
		c6.133,2.126,6.588,3.086,3.898,8.806c-3.516,7.475-6.984,14.974-10.322,22.53c-2.506,5.672-2.722,5.835-8.367,2.91
		C239.556,716.1,238.876,715.653,238.051,715.165z"/>
	<path fill="#D6261B" d="M695.837,251.037c-7.004,2.64-13.855,3.748-20.015-2.012c-0.95-1.153-1.176-2.412-0.562-3.795
		c0.447-0.731,1.137-0.967,1.947-0.945c2.048,0.682,4.146,2.446,6.058-0.265c6.972-2.969,13.331-6.91,19.012-11.945
		c3.971,0.398,5.377,3.172,3.611,7.053c-1.812,3.982-4.868,6.95-8.025,9.816C697.134,249.606,696.243,250.073,695.837,251.037z"/>
	<path fill="#BE2F30" d="M697.8,280.696c0.408,3.386-1.757,5.789-3.263,8.43c-0.525,0.921-0.99,1.926-0.257,2.727
		c1.022,1.117,1.632-0.421,2.458-0.683c2.901-0.921,5.456-2.542,8.814-2.509c4.068,0.04,0.064-2.04,0.409-3.094
		c3.688-1.157,7.419-2.195,11.049-3.511c2.586-0.937,5.491-1.787,4.849-5.695c-0.204-1.24,0.638-2.329,1.993-2.31
		c1.016,0.014,1.664,0.84,1.985,1.904c0.99,3.273,2.034,6.53,3.1,9.779c0.358,1.091,0.69,1.823-0.847,2.516
		c-1.473,0.664-1.76,0.388-2.53-0.897c-1.293-2.157-2.915-2.68-5.776-1.584c-8.05,3.085-16.339,5.558-24.586,8.1
		c-0.951,0.293-2.101,2.043-3.398,0.122c-1.08-1.6-0.854-3.031,0.058-4.442C693.788,286.565,695.814,283.643,697.8,280.696z"/>
	<path fill="#C32E2F" d="M713.768,253.658c0.922,4.336-1.197,6.004-6.825,5.03c4.856,3.228,4.931,5.013,0.779,6.147
		c0.69-2.568,0.658-2.675-1.278-2.087c-4.815,1.463-9.61,2.994-14.387,4.579c-2.236,0.742-3.609,2.145-3.252,4.789
		c0.177,1.308,0.205,2.653-1.839,2.783c-1.881,0.12-2.066-1.054-2.459-2.368c-0.936-3.128-1.719-6.346-3.09-9.282
		c-0.911-1.952,0.143-2.176,1.294-2.857c1.55-0.917,1.937-0.253,2.245,1.224c0.514,2.462,2.678,2.598,4.352,2.048
		c7.572-2.489,15.072-5.197,22.555-7.945C712.646,255.43,713.14,254.363,713.768,253.658z"/>
	<path fill="#B53432" d="M695.837,251.037c1.939-4.96,7.274-7.324,9.262-12.343c1.533-3.87,1.032-5.203-3.145-5.794
		c0.074-3.969-2.747-6.707-4.252-10.004c2.634-0.253,1.991-2.263,2.08-3.881c6.42,4.399,7.705,11.121,7.696,18.517
		c1.918-3.1,3.553-5.959,7.168-5.183c2.969,0.637,5.178,2.895,4.081,6.187c-1.065,3.196-3.567,5.38-7.199,3.692
		c-3.479-1.617-5.737-2.099-7.937,2.162C702.1,247.278,699.21,249.732,695.837,251.037z"/>
	<path fill="#BA322A" d="M635.82,142.736c-0.078,1.834,0.759,3.307,1.446,4.958c0.785,1.885,2.094,4.772-1.29,6.176
		c0-1.822,0-3.644,0-6.149c-4.856,4.327-9.347,8.321-13.829,12.327c-1.594,1.425-1.543,3.356-1.024,5.078
		c0.409,1.358,1.074,2.51-0.497,3.381c-1.705,0.945-2.359-0.697-3.169-1.579c-2.225-2.419-4.329-4.949-6.493-7.425
		c-0.517-0.591-1.383-1.109-0.317-1.925c0.633-0.484,1.722-1.431,1.911-1.282c6.308,4.941,8.706-2.071,12.335-4.313
		C628.908,149.503,632.209,145.868,635.82,142.736z"/>
	<path fill="#BE302B" d="M150.804,140.935c3.599-0.496,0.59-2.869,1.197-4.215c3.283,3.814,6.539,7.652,9.859,11.433
		c1.783,2.031,3.673,4.129,6.584,1.658c1.783-1.514,2.333,0.438,3.002,1.171c1.385,1.52-0.45,1.666-1.229,2.327
		c-3.248,2.757-6.439,5.581-9.826,8.532c-0.496-1.264-1.531-2.852-1.201-3.222c4.326-4.846-0.714-7.287-2.645-10.359
		C154.901,145.649,152.737,143.364,150.804,140.935z"/>
	<path fill="#BB3130" d="M178.073,126.88c-2.104-0.68-1.856,2.999-4.035,2.179c-2.081-4.549-5.578-8.01-9.028-11.47
		c-1.14-1.143-2.918-1.102-4.059,0.037c-1.71,1.707-2.555,0.454-3.456-0.706c-1.576-2.028,0.783-1.974,1.545-2.664
		c2.431-2.198,4.956-4.292,7.426-6.447c0.809-0.706,1.582-1.198,2.587-0.327c0.868,0.752,1.219,1.602,0.424,2.56
		c-2.969,3.579-0.118,5.962,1.784,8.452C173.446,121.356,175.795,124.09,178.073,126.88z"/>
	<path fill="#BC2F2F" d="M645.874,174.037c-0.036-1.561-0.091-3.109-2.232-3.203c2.408-2.195,4.856-4.348,7.212-6.598
		c2.318-2.213,5.565-4.198,2.67-8.138c-0.933-1.27,0.409-1.669,0.892-2.355c0.676-0.96,1.587-0.589,1.938,0.175
		c1.584,3.441,5.069,5.181,7.097,8.164c0.58,0.853,1.667,1.98,0.39,3.425c-1.284,1.452-1.921,0.621-3.178-0.059
		c-1.945-1.053-3.952-0.838-5.817,0.945C652.011,169.103,648.88,171.504,645.874,174.037z"/>
	<path fill="#B63232" d="M65.135,270.819c-4.643,1.349-8.453-2.869-13.032-1.949c-0.41-1.754,0.625-3.229,1.211-4.663
		c1.255-3.075,1.202-8.567,3.744-8.805c4.03-0.377,8.33,2.165,12.521,3.455c0.634,0.195,1.292,0.27,0.726,1.197
		c-0.406,0.664-0.386,1.712-1.454,1.763c-1.828,0.086-3.662,0.177-5.488,0.114c-3.784-0.131-6.272,1.388-7.126,5.206
		C59.08,268.779,62.538,268.755,65.135,270.819z"/>
	<path fill="#F6F2F2" d="M276.032,82.943c-0.273,1.457,0.121,2.746,0.98,3.92c-3.683-2.229-6.407-0.123-9.124,2.018
		c5.276-9.936,2.573-21.873-6.394-27.908c-4.603-3.098-9.469-3.939-14.712-1.493c-2.183,1.018-4.517,1.71-6.783,2.55
		c-0.349-3.298,2.099-4.456,4.465-4.972c9.181-1.999,17.67,0.52,24.394,6.501c2.453,2.182,2.226,7.459,3.035,11.363
		c0.296,1.43,0.256,3.007,0.011,4.457C271.295,82.992,273.147,83.506,276.032,82.943z"/>
	<path fill="#B83133" d="M459.708,76.943c4.406-1.1-1.042-2.692,0.198-3.95c8.134,2.42,10.911,1.547,15.642-5.583
		c1.059-1.596,1.535-1.426,2.947-0.717c1.111,0.558,1.499,0.879,1.063,2.11C476.895,76.322,467.775,80.085,459.708,76.943z"/>
	<path fill="#B5332B" d="M120.882,146.049c-3.02,4.564-7.833,4.361-11.807,5.609c-1.327,0.416-3.05-1.36-3.041-3.2
		c0.009-2.048,1.521-3.52,3.406-3.485C113.11,145.041,116.77,145.63,120.882,146.049z"/>
	<path fill="#B9322A" d="M419.342,71.788c2.458-0.097,3.651,1.017,3.653,3.536c0.001,2.54-1.183,4.319-3.626,4.417
		c-2.597,0.104-4.395-1.704-4.325-4.273C415.108,73.11,416.735,71.647,419.342,71.788z"/>
	<path fill="#BA3128" d="M301.958,87.681c0.192,1.882-0.569,3.125-3.226,3.319c-3.055,0.223-4.467-1.726-4.546-3.893
		c-0.074-2.04,1.869-3.992,4.079-4.094C300.717,82.9,301.889,84.767,301.958,87.681z"/>
	<path fill="#AE3536" d="M107.783,234.712c-1.181-2.618-3.545-1.608-5.525-1.826c-1.615-0.178-3.757,0.812-4.34-1.833
		c2.028,0.707,4.088,0.962,6.223,0.439c-0.106-1.332-1.056-1.969-2.07-2.537c-1.903-1.067-0.046-2.302,0.141-3.182
		c0.293-1.38,1.663-0.045,2.207,0.237C108.025,227.886,109.43,231.765,107.783,234.712z"/>
	<path fill="#AB3737" d="M675.81,244.996c0.004,1.342,0.007,2.685,0.012,4.028c-4.384-1.949-5.932-5.911-7.166-10.097
		c3.705,1.077,2.344-3.965,5.008-4.146C674.345,238.193,674.438,241.729,675.81,244.996z"/>
	<path fill="#A93839" d="M145.882,175.684c1.825,2.354,2.432-1.491,3.936-0.773c-1.079,3.662-3.787,5.899-6.847,7.827
		c-1.113-2.149-3.134-1.783-5.028-1.858c-1.658-0.066-3.728,0.503-3.965-2.186C138.079,178.221,142.248,178.012,145.882,175.684z"/>
	<path fill="#84493E" d="M393.045,62.809c-1.133-0.485-1.137-1.504-1.139-2.492c-0.011-7.581-0.015-15.162-0.003-22.743
		c0.002-0.986,0.041-2.003,1.139-2.513C393.043,44.312,393.044,53.561,393.045,62.809z"/>
	<path fill="#B83133" d="M457.811,70.934c-2.775-0.282-2.918-4.078-2.793-4.339c1.575-3.279,0.423-6.719,0.954-10
		c0.194-1.201,1.022-1.538,2.054-1.663C457.198,60.256,456.164,65.577,457.811,70.934z"/>
	<path fill="#B83133" d="M448.017,66.883c4.008,2.57,7.245,5.916,9.897,9.849C453.33,74.741,449.934,71.555,448.017,66.883z"/>
	<path fill="#A6CBDC" d="M336.063,526.674c1.664-3.469-0.657-6.469-1.637-9.328c-4.367-12.735-7.176-25.89-11.007-38.761
		c-1.634-5.488-0.889-6.155,4.966-6.895c17.165-2.169,34.393-2.947,51.682-3.057c4.447-0.028,8.885-0.915,13.388-0.831
		c2.595,0.049,3.483,0.973,3.477,3.535c-0.054,26.31-0.063,52.619,0.021,78.929c0.01,3.027-1.375,3.584-3.973,3.547
		c-9.971-0.143-19.865,1.009-29.769,1.972c-1.519,0.148-3.093-0.018-3.366,2.063C351.009,548.148,343.21,537.66,336.063,526.674z"/>
	<path fill="#A6CBDC" d="M288.849,188.829c11.093,5.989,22.617,10.998,34.895,13.897c4.376,1.033,5.351,2.804,4.108,6.832
		c-6.1,19.76-10.339,39.976-14.325,60.236c-1.592,8.091-2.718,16.304-3.478,24.515c-0.393,4.248-2.226,4.913-5.816,4.407
		c-12.418-1.75-24.896-3.098-37.169-5.789c-0.949-0.208-1.985-0.017-2.98-0.011c0.562-22.164,2.856-44.064,9.116-65.461
		C277.126,214.031,281.716,200.929,288.849,188.829z"/>
	<path fill="#A6CBDC" d="M264.044,296.794c11.086,1.796,22.195,3.462,33.251,5.422c11.964,2.121,12.231,2.28,10.513,14.635
		c-2.428,17.457-2.464,35.007-2.753,52.553c-0.076,4.619,0.458,9.257,0.884,13.871c0.315,3.415-0.879,4.724-4.448,4.604
		c-7.139-0.24-14.291-0.09-21.437-0.079c-1.771,0.003-3.823-0.467-4.275,2.17c-3.856-13.84-6.69-27.887-8.448-42.146
		C265.241,330.879,263.532,313.907,264.044,296.794z"/>
	<path fill="#A6CBDC" d="M268.098,478.63c10.918,21.253,23.147,41.725,36.996,61.193c5.759,8.095,12.034,15.823,18.075,23.718
		c-2.628,2.141-5.783,3.265-8.978,3.944c-6.282,1.336-11.933,4.007-17.434,7.178c-5.259,3.031-6.727,2.544-10.555-1.964
		c-13.987-16.475-24.563-35.115-33.982-54.388c-3.996-8.177-7.617-16.639-10.41-25.367c-1.853-5.791-0.903-7.27,5.058-8.759
		C253.965,482.413,261.12,480.859,268.098,478.63z"/>
	<path fill="#A6CBDC" d="M361.769,559.896c10.274-0.732,20.547-1.338,30.862-1.229c3.173,0.034,4.535,0.837,4.337,4.208
		c-0.243,4.147-0.089,8.319-0.046,12.479c0.015,1.429-0.336,3.204,1.954,3.313c2.024,0.097,2.656-1.485,2.73-2.929
		c0.222-4.315,0.314-8.65,0.166-12.968c-0.102-2.978,0.843-4.073,3.962-4.065c16.471,0.04,32.733,1.937,48.85,5.174
		c5.45,1.095,5.169,1.589,3.132,6.745c-3.112,7.878-7.297,15.159-11.533,22.393c-5.457,9.318-12.284,17.635-20.377,24.853
		c-11.721-7.354-22.4-16.089-32.642-25.315C381.932,582.434,370.888,572.075,361.769,559.896z"/>
	<path fill="#F1FCFD" d="M268.098,478.63c-0.277,1.888-1.712,2.085-3.24,2.446c-6.275,1.486-12.463,3.409-18.794,4.558
		c-3.847,0.698-4.814,2.006-3.459,5.64c4.269,11.449,9.056,22.634,14.545,33.578c5.264,10.495,10.891,20.732,17.579,30.352
		c4.525,6.508,9.469,12.729,14.295,19.025c2.038,2.66,4.32,1.068,6.146-0.199c7.456-5.177,16.423-6.604,24.547-10.104
		c1.017-0.438,2.295-0.271,3.452-0.385c0.642,0.681,1.285,1.363,1.928,2.044c-0.236,2.344-2.21,2.087-3.737,2.492
		c-8.021,2.131-15.616,5.325-23.082,8.927c-3.637,1.755-3.829,3.076-0.99,6.064c9.554,10.057,20.381,18.563,32.279,25.461
		c8.681,5.033,17.921,9.33,27.975,11.278c1.134,0.22,2.244,0.56,3.375,0.803c1.789,0.384,3.384,1.126,2.795,3.277
		c-0.547,2-2.141,1.452-3.687,1.076c-8.85-2.159-17.351-5.19-25.577-9.158c-15.905-7.674-29.315-18.567-41.348-31.3
		c-2.441-2.583-4.537-2.505-7.257-0.282c-5.942,4.855-11.779,9.727-14.717,17.128c-0.434,1.094-1.368,1.358-2.361,1.572
		c-0.618-0.378-1.237-0.756-1.856-1.134c1.445-8.375,7.616-13.474,13.445-18.559c6.311-5.506,6.305-5.028,1.173-11.558
		c-13.494-17.17-24.406-35.908-33.545-55.744c-3.611-7.837-6.28-15.971-9.23-24.029c-0.752-2.053-1.916-3.147-4.568-2.33
		c-15.208,4.684-29.125,11.891-41.723,21.515c-3.234,2.47-5.541,6.156-8.26,9.295c-0.792,0.914-1.235,2.818-2.913,1.562
		c-1.33-0.995-1.472-2.576-0.377-3.99c1.925-2.487,3.633-5.22,5.902-7.349c9.533-8.947,20.722-15.242,32.875-19.925
		c3.408-1.313,6.637-3.216,10.135-4.136c5.348-1.407,5.592-4.57,3.989-8.873c-7.096-19.055-9.786-39.147-13.601-58.955
		c-1.404-7.286-1.76-14.807-2.133-22.244c-0.191-3.819-1.754-4.745-5.242-4.725c-19.652,0.11-39.305,0.055-58.957,0.057
		c-0.999,0-1.999,0.019-2.998,0.001c-1.727-0.031-3.708-0.148-3.589-2.414c0.117-2.247,2.239-1.527,3.569-1.532
		c15.988-0.057,31.977-0.046,47.965-0.05c4.83-0.001,9.663-0.11,14.488,0.049c2.851,0.094,3.788-1.028,3.732-3.803
		c-0.137-6.826-0.245-13.662-0.023-20.483c0.532-16.388,1.039-32.774,4.644-48.899c0.779-3.484,0.658-7.2,1.76-10.972
		c1.306,3.111-0.403,6.403,1.347,9.164c0.037,2.987,0.074,5.974,0.111,8.961c-0.093,12.928-1.572,25.805-1.423,38.744
		c0.075,6.492-0.032,12.986,0.028,19.479c0.053,5.718,0.171,5.806,5.785,6.281c2.162,0.183,4.403,0.151,5.601,2.488
		c0.163,0.291,0.22,0.602,0.173,0.932c0.87,3.67-2.094,3.394-3.951,3.334c-7.319-0.236-7.132,1.837-6.649,7.871
		c1.218,15.241,3.061,30.43,6.733,45.304c2.349,9.517,4.487,19.094,7.281,28.497c1.829,6.156,2.303,6.411,8.369,4.918
		c4.678-1.152,9.28-2.603,14.012-3.547c2.139-0.427,4.263-0.924,6.218,0.565C267.408,477.337,267.753,477.983,268.098,478.63z"/>
	<path fill="#A6CBDC" d="M428.869,619.793c2.084-0.052,3.193-1.614,4.434-2.921c11.546-12.155,19.912-26.349,26.827-41.517
		c4.228-9.275,4.36-9.172,14.101-5.97c9.797,3.22,18.961,7.741,27.305,13.756c5.503,3.967,5.206,4.533,0.569,9.069
		c-9.946,9.729-21.056,17.586-33.939,23.026c-7.741,3.269-15.652,5.475-24.019,5.487c-3.864,0.005-5.629,1.248-5.331,5.124
		C434.904,624.809,432.015,622.091,428.869,619.793z"/>
	<path fill="#A6CBDC" d="M267.062,476.691c-7.822,0.433-15.134,3.16-22.566,5.234c-3.476,0.97-4.969,0.463-6.15-3.096
		c-4.166-12.557-7.086-25.442-9.912-38.312c-2.968-13.521-4.862-27.289-5.466-41.153c-0.375-8.616-0.719-7.458,7.25-7.587
		c1.821-0.03,4.188,0.93,4.83-2.03c2.643,8.859,5.198,17.745,7.946,26.571c6.116,19.642,13.717,38.699,22.806,57.16
		C266.308,474.507,266.646,475.618,267.062,476.691z"/>
	<path fill="#A6CBDC" d="M276.144,391.72c8.463,0.03,16.93,0.229,25.387,0.014c3.977-0.101,5.197,1.573,5.373,5.24
		c0.773,16.164,3.194,32.164,5.229,48.193c0.776,6.115,2.128,12.233,3.972,18.112c1.442,4.598-1.074,5.007-4.203,5.475
		c-2.657,0.397-5.806-0.342-7.083,3.149C292.775,446.065,282.748,419.504,276.144,391.72z"/>
	<path fill="#A6CBDB" d="M234.877,388.815c-2.927-1.778-6.158-0.875-9.253-0.958c-2.33-0.063-3.698-0.493-3.714-3.281
		c-0.115-20.531-0.316-41.061,2.241-61.492c0.056-0.444,0.482-0.841,0.735-1.26C226.2,344.455,230.247,366.678,234.877,388.815z"/>
	<path fill="#B4D4E4" d="M305.874,473.823c2.885,1.078,5.254-1.339,8.144-1.135c2.553,0.18,3.976,0.832,4.532,3.351
		c2.304,10.426,5.431,20.632,8.196,30.934c0.707,2.633,2.705,5.041,1.983,8.038C319.786,502.016,312.543,488.079,305.874,473.823z"
		/>
	<path fill="#EFFBFC" d="M224.786,286.748c-6.749-2.713-13.622-5.157-20.219-8.198c-11.154-5.143-21.643-11.378-29.997-20.642
		c-0.662-0.734-1.237-1.558-1.779-2.388c-0.95-1.454-2.964-3.055-0.881-4.696c2.19-1.725,3.019,0.746,4.08,2.071
		c6.334,7.91,14.389,13.593,23.32,18.19c8.271,4.257,16.626,8.285,25.638,10.767C224.894,283.484,224.84,285.116,224.786,286.748z"
		/>
	<path fill="#E9F6FA" d="M343.806,132.793c3.14,1.8,2.436,3.312-0.227,4.951c-7.116,4.381-14.218,8.789-21.234,13.328
		c-4.002,2.589-7.723,5.574-11.16,8.904c-0.52,0.504-1.368,2.612-2.185,0.099C318.87,148.771,330.178,139.303,343.806,132.793z"/>
	<path fill="#A6CBDC" d="M626.896,247.935c-4.656,1.322-4.591,3.379-2.221,7.423c6.994,11.932,12.139,24.742,16.251,37.96
		c8.532,27.422,12.65,55.553,10.615,84.139c-2.61,36.663-10.222,72.377-25.583,106.041c-5.638,12.357-11.722,24.545-19.9,35.517
		c-0.64-4.881-4.141-7.801-7.521-10.725c-8.104-7.013-17.286-12.335-27.163-16.367c-3.48-1.421-4.022-3.246-2.908-6.522
		c4.757-13.979,8.154-28.318,10.941-42.805c2.313-12.027,4.68-24.045,5.485-36.304c0.141-2.141,0.732-4.252,0.882-6.393
		c0.567-8.089,0.531-8.089,8.431-8.088c13.827,0.001,27.655,0.025,41.482-0.035c1.622-0.007,4.19,0.82,4.006-2.187
		c-0.155-2.532-2.466-1.734-3.949-1.74c-14.66-0.059-29.322-0.164-43.979,0.045c-3.926,0.056-5.156-1.02-5.021-5.042
		c0.525-15.636,0.755-31.371-1.168-46.855c-1.743-14.028,2.034-26.873,4.988-40.07c1.372-6.131,2.316-12.364,3.274-18.579
		c0.453-2.941,1.342-5.392,4.129-6.896c6.998-3.778,12.421-9.334,17.281-15.508c0.799-1.015,2.147-1.991,0.707-3.369
		c-1.42-1.359-2.702-0.668-3.868,0.552c-3.435,3.593-6.052,7.989-10.333,10.743c-1.186,0.763-2.217,2.527-3.875,1.705
		c-2-0.992-0.469-2.62-0.212-3.933c0.681-3.478-1.254-4.229-3.98-3.626c-6.602,1.461-13.27,0.482-19.893,0.841
		c-3.187,0.173-4.856-1.159-5.996-4.021c-2.083-5.225-4.349-10.383-6.719-15.485c-1.176-2.532-0.933-3.513,2.145-3.522
		c11.148-0.031,22.174,1.459,33.241,2.431c5.446,0.478,10.878,1.382,16.326,1.47c3.79,0.062,6.327,1.076,7.916,4.632
		C621.852,245.926,623.276,248.528,626.896,247.935z"/>
	<path fill="#D5332B" d="M475.961,267.91c4.237-2.58,8.418-5.274,14.297-7.028c-10.032,49.329-19.933,98.016-29.946,147.251
		c4.232-1.444,8.182-2.845,12.168-4.14c9.662-3.14,19.114-0.346,28.61,1.095c0.328,0.05,0.645,0.171,0.971,0.234
		c9.996,1.928,10.526,1.51,12.465-8.32c7.849-39.787,15.734-79.567,23.643-119.341c1.037-5.215,2.46-10.357,3.381-15.589
		c0.477-2.711,1.462-3.735,4.252-3.166c14.44,2.942,29.047,3.585,43.731,2.911c2.59-0.119,3.4,0.375,2.774,3.355
		c-5.295,25.222-10.383,50.488-15.52,75.743c-6.625,32.57-13.246,65.141-19.848,97.715c-1.701,8.393-1.905,8.555-10.411,9.07
		c-16.089,0.973-31.818-1.718-47.593-4.317c-12.477-2.056-24.977-3.753-37.659-0.605c-8.068,2.003-14.985,6.227-22.242,9.855
		c-1.626-1.448-1.342-3.265-0.964-5.087c4.687-22.598,8.986-45.274,13.854-67.839c3.677-17.044,6.785-34.213,10.353-51.288
		c3.873-18.537,7.484-37.13,11.267-55.688C473.919,270.885,474.578,269.227,475.961,267.91z"/>
	<path fill="#D5332B" d="M434.68,455.605c-3.767-0.979-6.491-3.868-9.963-5.436c-2.266-1.023-1.085-3.312-0.763-4.948
		c2.987-15.165,6.087-30.307,9.165-45.453c6.189-30.453,12.386-60.904,18.579-91.355c0.553-2.718,0.515-4.619-2.536-6.536
		c-9.167-5.759-18.519-8.864-29.308-5.463c-3.319,1.046-6.757,2.186-10.181,2.33c-6.464,0.273-8.503,3.994-9.621,9.629
		c-7.084,35.713-14.355,71.389-21.584,107.074c-1.749,8.634-3.667,17.235-5.314,25.887c-0.616,3.234-2.23,4.986-5.453,5.453
		c-14.31,2.074-28.571,4.462-43.006,5.658c-4.181,0.346-5.345-0.575-4.466-4.727c5.754-27.149,11.439-54.312,17.034-81.494
		c6.331-30.758,12.656-61.519,18.691-92.335c0.944-4.822,2.444-6.898,7.743-7.18c18.457-0.981,36.745-3.688,54.807-7.575
		c16.144-3.475,30.984,0.102,45.408,7.036c0.593,0.285,1.221,0.5,1.832,0.748c9.677,4.25,7.777,3.934,6.292,11.566
		c-5.517,28.349-11.435,56.62-17.127,84.935c-5.528,27.496-11.371,54.93-16.74,82.461
		C437.515,449.24,437.112,452.823,434.68,455.605z"/>
	<path fill="#A6CBDC" d="M417.303,468.709c17.415,0.542,34.794,1.514,52.066,3.936c3.117,0.437,6.283,0.442,9.416,0.733
		c4.15,0.385,4.607,2.576,3.996,5.624c-2.117,10.545-3.949,21.141-6.156,31.674c-3.263,15.57-7.988,30.674-12.826,45.775
		c-1.069,3.336-2.439,4.682-6.508,3.756c-12.599-2.865-25.484-4.063-38.319-5.505c-4.628-0.52-9.234-1.071-13.885-0.893
		c-2.768,0.106-3.291-1.3-3.287-3.691c0.045-25.812,0.063-51.623-0.03-77.435c-0.011-3.054,1.014-4.168,4.046-4.019
		C409.636,468.851,413.473,468.709,417.303,468.709z"/>
	<path fill="#A6CBDC" d="M560.798,495.087c-1.418,4.046-2.545,8.227-4.322,12.109c-6.528,14.257-12.286,28.907-20.705,42.23
		c-7.081,11.205-14.58,22.114-23.239,32.195c-1.829,2.129-3.568,2.335-5.475,0.577c-10.31-9.508-23.186-14.038-36.081-18.38
		c-4.107-1.383-4.567-3.158-3.157-6.833c5.712-14.881,9.486-30.357,13.2-45.806c2.509-10.438,4.062-21.117,5.761-31.733
		c0.618-3.86,1.879-4.531,5.914-4.073c21.697,2.462,42.514,8.502,63.331,14.639C560.395,491.299,561.144,492.075,560.798,495.087z"
		/>
	<path fill="#A6CBDD" d="M604.861,520.804c-6.068,10.739-13.992,20.13-22.17,29.214c-17.535,19.478-37.61,35.961-60.375,49.063
		c-0.698,0.402-1.521,0.585-2.285,0.871c0.005-3.626-2.37-6.138-4.307-8.774c-1.973-2.685-2.032-4.59,0.394-7.315
		c15.891-17.851,27.593-38.374,37.614-59.942c3.615-7.78,6.593-15.796,9.668-23.796c2.697-7.017,4.348-5.842,9.539-3.185
		c9.533,4.88,18.331,10.555,26.256,17.714C601.291,516.547,602.076,519.59,604.861,520.804z"/>
	<path fill="#A7CBDC" d="M580.949,399.23c-1.86,18.769-3.805,37.504-8.613,55.824c-2.605,9.927-4.424,20.062-8.268,29.648
		c-0.727,1.813-1.025,3.411-3.737,2.426c-22.336-8.115-45.443-13.042-68.928-16.323c-2.508-0.35-3.304-1.12-2.822-3.881
		c0.965-5.533,1.489-11.154,1.974-16.757c0.286-3.313,2.037-3.623,4.749-3.111c17.307,3.267,34.704,5.611,52.388,4.742
		c0.332-0.016,0.666-0.005,0.999-0.009c9.451-0.104,9.505-0.093,11.446-9.383c3.281-15.704,6.521-31.417,9.702-47.141
		c1.205-5.957,5.81-2.799,8.897-3.31c4.117-0.682,2.092,2.518,2.201,4.282C580.999,397.23,580.949,398.231,580.949,399.23z"/>
	<path fill="#A6CBDC" d="M309.938,360.473c-0.814-16.796,1.215-33.477,2.05-50.206c0.291-5.829,0.988-6.102,6.708-5.522
		c7.741,0.785,15.502,1.394,23.263,1.955c2.477,0.179,2.963,1.009,2.448,3.479c-3.947,18.932-7.366,37.972-11.943,56.778
		c-1.404,5.768-2.078,11.707-3.328,17.533c-0.621,2.894-1.798,3.308-4.278,3.373c-14.908,0.391-14.907,0.436-14.918-14.413
		C309.935,369.124,309.938,364.799,309.938,360.473z"/>
	<path fill="#A6CBDC" d="M471.93,205.1c-0.505-3.678,2.276-4.086,4.312-4.798c9.701-3.398,18.909-7.681,27.393-13.577
		c3.61-2.509,6.525-5.651,9.537-8.719c1.853-1.886,3.288-2.628,5.156-0.169c5.99,7.88,12.995,14.977,17.98,23.638
		c1.898,3.297,4.119,6.415,6.313,9.531c1.831,2.601,1.433,3.552-1.891,3.994c-13.758,1.829-27.692,2.913-40.849,7.8
		c-5.879,2.183-11.803,4.338-17.257,7.529c-2.901,1.698-4.511,1.503-5.287-2.396C475.791,220.156,473.71,212.483,471.93,205.1z"/>
	<path fill="#A6CBDC" d="M341.518,243.793c-4.507,0.671-8.895-0.817-13.356-2.265c-2.735-0.888-3.875-2.268-3.164-5.042
		c2.388-9.312,4.8-18.618,7.186-27.93c0.63-2.46,2.364-3.169,4.562-2.637c13.418,3.248,27.127,4.437,40.812,5.721
		c2.989,0.28,3.674,1.553,3.415,4.117c-0.337,3.336,0.517,5.173,4.557,5.29c4.222,0.123,4.711-1.891,4.451-5.143
		c-0.21-2.616,0.809-4.109,3.69-4.051c3.177,0.064,3.338,2.216,3.225,4.485c-0.065,1.305-0.718,2.603-0.672,3.888
		c0.398,11.235,0.424,11.222-10.386,14.117c-9.608,2.573-19.189,5.239-28.74,8.023C352.317,243.762,346.993,244.339,341.518,243.793
		z"/>
	<path fill="#A7CBDC" d="M313.733,294.73c1.612-9.121,2.904-18.315,4.96-27.334c1.183-5.191,0.718-10.602,2.668-15.66
		c0.809-2.099,1.433-3.142,3.784-1.793c15.249,8.751,31.545,7.302,47.903,4.678c5.876-0.942,11.663-2.448,17.543-3.363
		c2.096-0.326,5.271-2.194,6.173,1.589c0.851,3.575,0.082,6.497-4.536,7c-11.031,1.202-22.007,3.137-33.139,2.983
		c-4.05-0.056-5.516,1.62-6.185,5.372c-1.887,10.585-4.069,21.118-6.178,31.663c-0.409,2.042-1.604,3.178-3.885,2.922
		c-8.226-0.924-16.444-1.988-24.694-2.608C314.282,299.889,313.256,298.183,313.733,294.73z"/>
	<path fill="#A7CBDC" d="M559.857,256.908c-5.563-0.817-11.191-1.339-16.662-2.567c-3.026-0.679-4.195,0.009-4.984,2.833
		c-2.335,8.361-4.391,9.406-12.956,6.899c-7.319-2.142-14.639-4.273-22.363-4.27c-1.327,0.001-2.761-0.164-3.96,0.264
		c-3.728,1.332-4.653,0.142-3.518-3.421c0.688-2.159-0.096-2.857-2.21-1.997c-1.381,0.561-2.835,0.994-4.121,1.722
		c-1.452,0.821-3.044,2.282-4.48,0.991c-1.452-1.306-1.75-3.521-1.662-5.551c0.115-2.625,2.45-1.512,3.752-2.179
		c7.831-4.015,15.917-7.477,24.381-9.796c13.644-3.737,27.585-5.533,41.774-4.976c2.13,0.084,3.31,1.412,4.034,3.206
		c1.986,4.925,3.918,9.871,5.865,14.812C563.857,255.697,563.517,257.474,559.857,256.908z"/>
	<path fill="#A7CBDC" d="M436.879,462.369c3.938-7.778,11.121-10.71,18.025-13.188c8.692-3.119,17.797-5.011,27.29-3.535
		c2.643,0.411,4.011,0.909,3.754,3.788c-0.487,5.453-0.735,10.931-1.345,16.369c-0.302,2.691-1.247,4.265-4.947,3.502
		c-10.891-2.247-22.046-2.646-33.116-3.41c-13.748-0.948-27.53-1.42-41.303-1.949c-2.623-0.101-3.504-1.063-3.448-3.586
		c0.112-4.995,0.174-10-0.02-14.99c-0.136-3.498,1.846-3.948,4.433-3.477c3.091,0.564,6.122,1.452,9.19,2.154
		c2.738,0.626,4.99,1.435,3.65,5.096c-0.469,1.281,0.07,2.594,1.43,3.402C426.014,455.836,431.535,459.165,436.879,462.369z"/>
	<path fill="#382671" d="M329.867,247.14c17.237,3.435,33.17-2.119,49.29-6.806c21.307-6.195,42.814-11.243,65.309-8.257
		c7.924,1.052,15.72,2.736,23.313,5.189c3.18,1.027,5.898,3.301,4.604,7.1c-1.258,3.693-4.816,4.296-7.925,3.024
		c-25.366-10.38-50.656-5.434-76.02-0.087c-13.812,2.912-27.605,6.054-41.95,4.857C340.569,251.666,335.19,249.87,329.867,247.14z"
		/>
	<path fill="#A7CBDC" d="M396.904,453.302c0.011,10.537-0.01,10.129-10.326,10.659c-20.689,1.063-41.447,0.905-62.059,3.434
		c-5.808,0.713-3.954-4.364-4.893-7.178c-1.179-3.535,1.548-3.3,3.697-3.432c16.221-0.994,32.174-3.85,48.105-6.873
		c1.826-0.346,4.189-0.503,4.5-2.479c0.695-4.409,3.338-4.029,6.616-3.741c2.933,0.257,5.942,0.377,8.91-0.504
		c3.958-1.176,6.062,0.117,5.487,4.626C396.712,449.617,396.904,451.472,396.904,453.302z"/>
	<path fill="#A7CBDC" d="M474.902,236.379c-9.523-5.578-19.443-7.211-29.485-8.494c-13.469-1.721-26.812-0.875-40.096,1.67
		c-1.286,0.246-3.018,0.655-3.239-1.176c-0.262-2.175-1.405-4.938,0.996-6.437c2.808-1.754,4.608-4.186,6.266-6.868
		c2.022-3.271,5.238-3.559,8.997-3.638c-1.269,3.251-2.415,6.188-3.645,9.34c0.819,0.156,1.25,0.227,1.677,0.322
		c6.416,1.423,9.636-1.952,11.639-7.506c1.111-3.081,6.733-5.046,9.564-3.674c0.959,0.465,1.101,1.101,0.787,1.985
		c-0.445,1.252-1.51,2.667-1.222,3.713c0.544,1.972-4.219,3.777-0.539,5.082c2.966,1.051,6.935,2.099,9.022-2.244
		c0.576-1.199,1.202-2.376,1.734-3.594c1.173-2.685,1.216-6.581,3.939-7.692c4.229-1.726,8.948-2.311,13.503-3.144
		c1.903-0.348,2.411,1.444,2.868,2.866C470.705,216.338,472.86,226,474.902,236.379z"/>
	<path fill="#A6CBDD" d="M401.89,326.03c0-1.165-0.175-2.363,0.034-3.49c0.573-3.091,0.698-6.48,2.128-9.146
		c1.93-3.598,5.315-0.159,8.087-0.528c7.374-0.982,14.712-2.494,22.234-2.138c4.042,0.191,9.191,0.031,10.798,3.584
		c1.929,4.266-0.272,9.346-1.991,13.85c-0.384,1.007-1.041,1.63-2.304,1.159c-9.751-3.635-18.937-0.459-28.152,2.368
		c-0.949,0.291-1.93,0.476-2.896,0.711C402.762,334.118,401.747,333.308,401.89,326.03z"/>
	<path fill="#A7CBDC" d="M506.882,268.812c10.601-0.103,18.005,2.307,25.656,2.011c2.481-0.096,2.581,1.738,2.262,3.447
		c-0.879,4.702-2.018,9.358-2.826,14.071c-0.382,2.227-1.628,2.421-3.48,2.527c-5.784,0.328-11.073-1.903-16.474-3.257
		c-6.461-1.621-12.775-3.351-19.446-1.693c-2.353,0.585-2.99-0.377-2.615-2.512c0.057-0.327,0.115-0.653,0.176-0.979
		C492.265,270.939,495.385,268.785,506.882,268.812z"/>
	<path fill="#AACBDC" d="M401.899,253.222c-0.639-3.214,0.681-4.906,4.022-5.401c15.961-2.366,31.909-3.729,47.837,0.166
		c4.303,1.052,7.887,4.172,12.708,3.975c3.165-0.129,5.909-0.381,7.85-3.22c1.738-2.541,2.877-1.654,3.515,0.795
		c0.416,1.595,0.91,3.215,0.988,4.841c0.117,2.433,2.955,5.429-0.264,7.201c-3.372,1.856-6.511,4.909-11.366,2.031
		c-11.952-7.086-24.969-10.744-39.013-9.684c-7.265,0.548-14.565,1.272-21.572,3.265
		C402.388,258.388,401.414,257.039,401.899,253.222z"/>
	<path fill="#A7CADD" d="M401.837,348.732c0.721-2.717-1.772-6.589,0.326-9.012c2.045-2.361,6.023-0.371,9.068-1.005
		c7.636-1.59,15.242-3.025,23.035-0.869c6.61,1.828,6.763,1.962,5.617,8.626c-0.056,0.326,0.021,0.706-0.119,0.982
		c-1.369,2.689,0.246,6.898-2.349,8.249c-1.822,0.949-5.087-0.938-7.724-1.477c-5.025-1.028-9.83,0.289-14.631,1.507
		c-1.113,0.282-2.164,0.809-3.277,1.09C401.834,359.337,401.831,359.328,401.837,348.732z"/>
	<path fill="#FCE7DE" d="M434.68,455.605c3.465-16.907,6.956-33.809,10.39-50.722c6.772-33.348,13.509-66.704,20.271-100.055
		c2.046-10.091,4.058-20.189,6.236-30.251c0.585-2.701,0.157-4.414-2.635-5.403c-1.184-0.42-2.138-1.485-3.197-2.256
		c3.539-1.043,6.535,3.497,10.216,0.993c-7.412,36.997-14.47,74.07-22.367,110.963c-4.904,22.909-9.128,45.954-14.223,68.821
		c-0.355,1.592-0.235,3.289-0.336,4.937C437.705,453.801,436.707,455.457,434.68,455.605z"/>
	<path fill="#A7CBDD" d="M499.835,319.803c6.549,0.424,14.352,2.372,22.352,2.012c2.779-0.125,2.886,1.73,2.491,3.693
		c-0.88,4.375-2.002,8.704-2.767,13.097c-0.435,2.497-1.703,3.31-4.071,3.298c-8.115-0.04-15.577-2.9-23.156-5.249
		c-1.243-0.385-1.683-1.47-1.822-2.724c-0.272-2.468-0.737-4.92-0.893-7.393C491.568,320.155,491.933,319.826,499.835,319.803z"/>
	<path fill="#A7CBDC" d="M401.66,374.15c0.182-2.806-0.449-6.051,0.766-8.299c1.319-2.441,4.899-0.884,7.454-1.407
		c7.439-1.523,14.878-2.895,22.313,0.787c2.582,1.279,2.963,2.697,2.634,5.001c-0.024,0.165-0.053,0.329-0.084,0.492
		c-0.672,3.574-0.313,7.956-2.303,10.498c-2.073,2.646-5.992-0.856-9.364-0.657c-5.493,0.326-10.994,0.383-16.157,2.342
		c-4.681,1.776-5.575-0.166-5.122-4.258c0.164-1.48,0.026-2.993,0.026-4.491C401.767,374.156,401.713,374.153,401.66,374.15z"/>
	<path fill="#A6CCDD" d="M520.89,315.907c-7.608,0.128-14.366-3.828-21.802-4.533c-1.149-0.109-2.299-0.528-3.428-0.462
		c-3.014,0.174-5.009-0.178-4.983-4.128c0.025-3.768,1.516-4.635,4.992-5.033c10.524-1.203,20.784-4.058,31.334-5.302
		c3.09-0.364,3.148,0.83,2.771,2.853c-0.88,4.719-1.859,9.421-2.921,14.102C526.262,316,526.136,315.981,520.89,315.907z"/>
	<path fill="#A7CBDC" d="M316.395,441.176c-2.201-10.648-3.607-21.412-4.474-32.255c-0.343-4.291-1.294-8.517-1.039-12.878
		c0.279-4.763,1.069-4.902,12.705-4.318c4.655,0.234,3.583,3.317,3.155,5.572c-1.358,7.147-3.246,14.192-4.719,21.32
		c-1.558,7.539-2.874,15.128-4.296,22.695C317.283,441.267,316.839,441.221,316.395,441.176z"/>
	<path fill="#A6CCDC" d="M493.806,354.044c-0.076-8.957-0.115-8.62,9.299-7.544c4.337,0.495,8.74,1.754,13.281,0.539
		c2.948-0.789,3.776,0.806,3.066,3.711c-1.021,4.174-1.888,8.403-2.494,12.655c-0.457,3.206-2.431,4.508-5.127,4.074
		c-4.067-0.654-8.184-0.957-12.213-2.115c-4.227-1.214-6.899-2.911-5.848-7.832C494.009,356.417,493.806,355.209,493.806,354.044z"
		/>
	<path fill="#A8CBDC" d="M415.631,391.866c3.659,0,7.321,0.079,10.977-0.026c2.671-0.077,3.69,1.196,3.273,3.654
		c-0.663,3.912-1.397,7.817-2.276,11.685c-0.169,0.744-0.075,2.193-2.197,1.317c-6.5-2.686-13.328-2.319-19.984-0.514
		c-3.226,0.875-3.569-0.302-3.653-3.044c-0.403-13.167-0.465-13.165,12.861-13.127c0.333,0.001,0.665,0,0.998,0
		C415.631,391.829,415.631,391.847,415.631,391.866z"/>
	<path fill="#B3D4E3" d="M411.156,415.8c0.998,0.004,1.997-0.024,2.993,0.009c8.456,0.277,10.933,3.155,9.641,11.249
		c-0.155,0.975-0.694,1.904-0.761,2.874c-0.345,4.991-2.382,5.912-6.924,3.712c-3.297-1.596-7.092-1.08-10.724-0.172
		c-2.751,0.688-4.575,0.241-3.829-3.488c0.514-2.566,0.527-5.33,0.22-7.942c-0.597-5.076,1.918-6.551,6.391-6.256
		C409.156,415.852,410.158,415.796,411.156,415.8z"/>
	<path fill="#A8CBDC" d="M396.785,426.369c0.116,9.041,0.121,9.06-8.486,11.385c-2.884,0.779-6.352,2.251-8.694,0.722
		c-3.04-1.985,0.072-5.229,0.343-7.912c0.381-3.766,1.419-7.462,1.884-11.224c0.289-2.336,1.428-2.714,3.373-2.304
		c1.288,0.272,2.64,0.336,3.873,0.758c2.538,0.868,5.97-2.09,7.489,0.726C397.677,420.577,396.785,423.714,396.785,426.369z"/>
	<path fill="#A9CBDC" d="M489.879,379.527c-0.21,9.221,1.771,8.199-8.591,8.203c-2.934,0.001-5.865-0.317-8.808,0.039
		c-3.337,0.404-4.272-1.411-3.256-4.183c0.918-2.505,1.86-4.929,1.779-7.652c-0.034-1.12,0.62-1.722,1.771-2.001
		c3.841-0.929,7.633-2.07,11.49-2.923c3.609-0.797,6.328-0.224,5.642,4.544C489.719,376.854,489.878,378.202,489.879,379.527z"/>
	<path fill="#A8CBDD" d="M502.686,387.816c-8.822-0.011-8.822-0.011-8.808-9.043c0.012-7.314-0.012-7.137,7.201-6.172
		c3.586,0.48,7.277,0.217,10.92,0.206c2.088-0.006,3.136,0.735,2.699,2.974c-0.378,1.938-0.604,3.908-1.041,5.832
		C512.292,387.64,511.923,387.827,502.686,387.816z"/>
	<path fill="#AACBDB" d="M581.593,341.923c1.657,14.916,2.025,29.084,0.256,43.223c-0.627,5.014-5.017,2.181-7.652,2.509
		c-2.758,0.343-2.54-2.143-2.097-3.906c3.34-13.29,5.505-26.813,8.115-40.248C580.267,343.23,580.618,343.019,581.593,341.923z"/>
	<path fill="#0A0C0C" d="M399.76,218.936c-0.344-1.846,0.942-2.629,1.693-3.659c1.835-2.518,3.796-4.362-1.451-5.805
		c-4.186-1.151-4.629-5.68-4.072-9.668c0.561-4.021,4.263-7.096,8.469-6.897c4.041,0.191,7.374,1.73,8.648,6.091
		c1.067,3.654-0.066,6.894-1.897,9.915c-1.796,2.963-4.008,5.674-5.777,8.651C403.786,220.234,401.65,218.611,399.76,218.936z"/>
	<path fill="#A9CBDD" d="M396.901,401.519c0.007,0.497,0.007,0.994,0.007,1.49c-0.004,7.561-2.416,9.888-10.108,9.792
		c-2.309-0.029-3.777-0.247-2.884-3.426c1.328-4.726,2.326-9.596,2.887-14.471c0.518-4.506,3.673-2.779,5.955-3.045
		c2.265-0.264,4.402-0.09,4.165,3.204C396.77,397.204,396.895,399.366,396.901,401.519z"/>
	<path fill="#AACADC" d="M489.668,356.681c1.572,5.057-0.855,6.319-5.702,5.247c-1.26-0.279-2.649-0.132-3.96,0.003
		c-6.318,0.651-6.316,0.673-5.042-5.784c0.032-0.162,0.015-0.357,0.1-0.483c1.435-2.136-0.387-5.911,1.903-6.826
		c3.086-1.232,6.563-1.747,9.824-2.797c1.45-0.467,2.029,0.584,2.14,1.952C489.155,350.782,490.272,353.477,489.668,356.681z"/>
	<path fill="#101113" d="M444.451,193.364c8.817,0.019,9.201,0.675,5.597,9.132c-1.74,4.083-3.351,8.221-5.083,12.307
		c-0.51,1.204-1.124,2.399-1.893,3.449c-1.096,1.495-2.868,1.128-4.066,0.529c-1.305-0.653-0.282-2.133,0.108-3.026
		c2.183-4.993,4.393-9.984,6.869-14.837c1.397-2.739,0.768-3.569-2.128-3.376c-1.655,0.11-3.321,0.034-4.983,0.042
		c-1.473,0.007-2.013-0.78-2.016-2.189c-0.003-1.482,0.672-2.077,2.113-2.042C440.796,193.398,442.624,193.364,444.451,193.364z"/>
	<path fill="#0D0F0F" d="M418.144,218.436c2.997-6.811,5.953-13.53,9.199-20.908c-3.284,0-5.899,0.008-8.515-0.003
		c-1.437-0.006-1.989-0.728-2.016-2.182c-0.031-1.621,0.816-1.958,2.149-1.951c3.656,0.021,7.388-0.44,10.948,0.148
		c4.208,0.695,2.272,4.048,1.467,6.115c-2.089,5.358-4.969,10.423-6.85,15.842C423.24,219.203,421.29,219.484,418.144,218.436z"/>
	<path fill="#3D306B" d="M513.229,370.355c-6.616,1.29-12.576,0.311-18.391-0.777c-6.287-1.177-12.199-0.571-18.116,1.447
		c-1.812,0.618-4.04,2.082-4.997-0.763c-0.826-2.456,0.876-4.108,3.12-4.91c5.519-1.973,11.041-1.47,16.658-0.166
		C498.431,366.792,505.101,369.467,513.229,370.355z"/>
	<path fill="#3D3169" d="M522.689,319.409c-5.994,0.867-10.985,0.047-15.826-0.891c-6.911-1.34-13.51-1.034-20.063,1.412
		c-1.649,0.615-3.616,1.966-4.709-0.488c-1.113-2.498,0.492-4.093,2.654-5.075c4.586-2.083,9.43-2.01,14.158-0.953
		C506.583,315.132,514.176,317.24,522.689,319.409z"/>
	<path fill="#3E2F68" d="M396.308,362.533c9.189-2.207,17.657-4.296,26.154-6.26c4.534-1.048,8.903-0.132,13.039,1.8
		c1.776,0.829,2.972,2.357,2.088,4.421c-0.87,2.031-2.775,1.7-4.278,0.996c-8.141-3.817-16.542-2.414-24.88-1.249
		C404.621,362.773,400.873,362.988,396.308,362.533z"/>
	<path fill="#3C306C" d="M386.909,415.695c10.216-1.849,19.555-7.644,30.277-6.889c3.149,0.222,6.389,0.296,8.584,3.032
		c0.661,0.823,1.56,1.862,0.852,3.155c-0.628,1.147-1.682,1.837-2.894,1.299c-10.881-4.826-21.881-1.651-32.854-0.614
		C389.564,415.802,388.232,415.695,386.909,415.695z"/>
	<path fill="#3E3169" d="M403.655,336.584c9.671-2.74,18.951-6.862,29.18-6.73c2.859,0.037,5.624,0.438,8.118,1.905
		c1.565,0.92,2.494,2.386,1.894,4.179c-0.721,2.156-2.657,1.91-4.153,1.199c-8.991-4.273-18.035-2.35-27.157-0.625
		C408.996,336.991,406.287,336.584,403.655,336.584z"/>
	<path fill="#3E2F6D" d="M380.898,441.309c8.767-0.966,16.76-4.492,25.211-6.104c4.221-0.805,8.322-0.392,12.179,1.345
		c1.95,0.878,4.046,2.409,2.782,5.023c-1.088,2.251-3.133,1.215-4.776,0.508c-8.089-3.48-16.387-1.934-24.585-0.84
		C388.036,441.732,384.456,441.773,380.898,441.309z"/>
	<path fill="#3D3166" d="M530.243,293.303c-7.246,1.48-12.974,0.536-18.682-0.638c-6.308-1.297-12.481-1.337-18.531,1.337
		c-2.025,0.895-4.886,2.323-5.8-0.98c-0.717-2.589,1.643-4.197,4.033-4.8c5.759-1.453,11.498-0.978,17.207,0.503
		C515.18,290.468,521.822,292.528,530.243,293.303z"/>
	<path fill="#3B2F6A" d="M518.478,344.249c-4.763,2.566-9.416,0.915-13.767,0.177c-7.956-1.348-15.679-2.534-23.317,1.298
		c-1.498,0.752-3.809,1.374-4.606-1.096c-0.717-2.222,0.498-3.81,2.673-4.607c7.071-2.59,14.031-1.26,20.997,0.537
		C506.21,342.043,511.863,344.028,518.478,344.249z"/>
	<path fill="#3B2D6A" d="M392.3,388.438c7.246-0.586,13.802-3.61,20.731-5.116c5.083-1.105,10.166-1.427,15.21,0.09
		c2.388,0.718,4.599,2.22,3.806,4.934c-0.905,3.094-3.561,1.601-5.399,0.909c-6.939-2.616-13.976-2.124-21.055-0.987
		C401.158,388.98,396.729,389.443,392.3,388.438z"/>
	<path fill="#40336B" d="M524.735,268.1c-3.441-0.47-6.901-0.834-10.32-1.435c-5.902-1.039-11.499-0.217-17.001,2.094
		c-1.678,0.705-4.074,1.946-5.065-0.885c-0.892-2.55,0.929-3.971,3.065-4.868c4.453-1.869,9.153-1.814,13.698-0.898
		c6.32,1.274,12.523,3.125,18.776,4.729C527.666,269.326,525.929,268.035,524.735,268.1z"/>
	<path fill="#3C3069" d="M407.643,309.426c7.468-0.833,14.478-3.446,21.726-5.008c5.441-1.173,10.894-1.578,16.191,0.577
		c1.933,0.786,3.598,2.215,2.777,4.611c-0.882,2.574-3.241,1.713-4.66,1.008c-8.382-4.164-16.95-2.184-25.482-1.049
		C414.643,310.038,411.148,310.834,407.643,309.426z"/>
	<path fill="#3B2E68" d="M475.61,395.644c-1.802-0.375-3.078,0.958-4.606,1.46c-1.843,0.605-3.733,1.215-4.688-1.035
		c-0.988-2.329,0.502-3.836,2.488-4.693c4.739-2.044,9.7-2.235,14.652-1.077c6.114,1.429,12.171,3.102,18.252,4.669
		c-0.732,2.556-2.558,1.034-3.968,1.064c-1.896-0.109-3.791-0.218-5.687-0.327C486.575,394.969,481.101,392.997,475.61,395.644z"/>
	<path fill="#141615" d="M388.119,206.14c-0.002,3.484-0.039,6.968,0.015,10.451c0.024,1.53-0.261,2.486-2.119,2.539
		c-1.96,0.055-2.655-0.723-2.629-2.61c0.058-4.312,0.109-8.628-0.033-12.937c-0.079-2.401,1.161-5.361-2.499-6.612
		c-0.835-0.285-0.794-1.938-0.166-2.697c1.524-1.841,3.688-0.725,5.575-0.861c1.565-0.112,1.873,0.967,1.866,2.276
		C388.107,199.172,388.12,202.656,388.119,206.14z"/>
	<path fill="#AACCD9" d="M396.92,374.999c0,2.156,0.069,4.315-0.015,6.467c-0.146,3.752-2.879,5.535-6.387,4.358
		c-1.196-0.401-1.577-1.094-1.368-2.205c1.003-5.342,1.977-10.69,3.086-16.01c0.304-1.459,0.964-2.943,2.972-2.653
		c1.881,0.272,1.661,1.802,1.694,3.077C396.963,370.354,396.92,372.677,396.92,374.999z"/>
	<path fill="#ACC9DA" d="M479.226,337.133c0.606-3.436,1.126-6.505,1.693-9.565c0.479-2.588,1.312-4.951,4.606-4.728
		c3.547,0.24,2.296,3.085,2.346,4.939C488.104,336.363,488.039,336.365,479.226,337.133z"/>
	<path fill="#C0D7E1" d="M409.298,303.474c9.665-2.559,18.274-7.06,28.921-2.649C428.19,303.008,419.287,304.815,409.298,303.474z"
		/>
	<path fill="#C1D4DE" d="M436.513,204.825c-1.077-0.215-2.985,0.845-4.176-0.697c-1.334-1.728,1.186-2.789,1.124-4.494
		c-0.05-1.37,1.082-1.465,2.052-0.633c1.277,1.094,2.807,0.706,4.253,0.905c1.299,0.178,3.508-0.884,3.585,1.318
		c0.061,1.765-1.101,3.494-3.38,3.594C438.982,204.861,437.989,204.825,436.513,204.825z"/>
	<path fill="#BDD5E1" d="M421.021,200.242c0.12,0.048,2.674-1.165,2.273,1.059c-0.453,2.511-1.257,5.692-5.057,5.551
		c-1.371-0.051-3.451,0.379-3.045-1.945C415.635,202.372,415.513,198.837,421.021,200.242z"/>
	<path fill="#C8D4DE" d="M494.438,398.524c4.711-0.427,9.38,1.1,14.035-0.434c0.848-0.279,1.262,0.833,1.259,1.721
		c-0.007,1.876-1.361,2.194-2.716,1.968C502.774,401.071,498.389,400.923,494.438,398.524z"/>
	<path fill="#CEDBE3" d="M491.816,297.065c5.223-2.679,10.609-4.061,16.4-2.225C502.886,296.662,497.427,297.463,491.816,297.065z"
		/>
	<path fill="#CAD2DE" d="M489.201,397.929c-5.695,1.822-11.69-0.347-17.343,1.76C475.404,396.488,482.008,395.769,489.201,397.929z"
		/>
	<path fill="#BFCBD6" d="M396.932,348.267c-0.574,3.419,1.365,6.107,0.651,9.126c-0.291,1.231-0.2,2.813-2.241,2.355
		c-1.636-0.367-1.569-1.559-1.071-2.68C395.455,354.399,394.17,351.077,396.932,348.267z"/>
	<path fill="#CAD2DE" d="M475.61,395.644c5.492-2.945,10.969-1.706,16.444,0.06C486.571,396.071,481.097,394.121,475.61,395.644z"/>
	<path fill="#9096A4" d="M497.741,396.031c1.256-0.604,2.945,0.409,3.968-1.064c2.357,0,4.714,0,8.414,0
		C505.219,397.589,501.519,397.442,497.741,396.031z"/>
	<path fill="#9094A5" d="M524.735,268.1c1.047-0.432,2.431-0.022,3.154-1.264c2.312,0,4.623,0,7.914,0
		C531.65,269.627,528.245,269.451,524.735,268.1z"/>
	<path fill="#FAFAFA" d="M525.106,86.816c-2.63-4.54-5.477-7.93-11.047-7.008c-2.098,0.347-2.548-1.011-1.828-2.815
		c1.88-4.711,3.695-9.458,7.853-12.774c2.294-1.83,4.586-3.045,7.609-1.384c2.868,1.576,4.621,3.635,4.153,7.057
		C531.021,75.932,529.035,81.532,525.106,86.816z"/>
	<path fill="#F7F4EF" d="M518.828,87.343c0.044,2.124,0.113,5.194-2.164,5.195c-2.179,0.001-5.538-1.424-5.41-4.576
		c0.094-2.322,1.42-4.851,4.467-5.06C519.056,82.674,518.786,85.164,518.828,87.343z"/>
	<path fill="#F6F2F2" d="M261.947,84.735c0.146,3.262-4.528,8.097-7.884,8.175c-1.411,0.033-2.006-0.578-2.493-1.776
		c-1.16-2.852-2.418-5.666-3.68-8.475c-1.026-2.284,1.296-1.98,2.135-2.805c1.019-1.002,3.706-0.84,2.592-3.304
		c-1.16-2.567-2.775-0.598-3.869,0.079c-2.288,1.415-3.445,0.665-4.258-1.566c-0.276-0.758-0.827-1.429-1.032-2.198
		c-0.676-2.545-4.031-4.964-0.912-7.737c2.654-2.36,8.422-1.583,11.254,1.061C259.142,71.175,260.508,77.898,261.947,84.735z"/>
	<path fill="#FCFDFD" d="M37.007,438.748c-1.632-6.665,10.262-11.371,16.668-9.593c4.447,1.234,7.281,3.998,7.316,9.044
		c0.034,4.844-2.451,7.232-6.857,8.802c-2.178,0.776-4.517,0.206-6.622,1.43c-0.459,0.267-5.334,0.527-2.348-3.312
		c0.598-0.768,1.476-1.666-0.066-2.274c-1.729-0.681-2.811-3.163-4.87-2.455C36.928,441.525,37.003,441.743,37.007,438.748z"/>
	<path fill="#F9F7F4" d="M82.937,234.778c-0.7,2.149-0.451,5.274-3.116,6.77c-1.202,0.674-9.945-5.617-9.768-6.759
		c0.508-3.29,2.176-6.046,5.494-6.742C78.82,227.361,82.927,231.224,82.937,234.778z"/>
	<path fill="#F5FBFA" d="M348.9,719.456c0.622,3.605-2.235,5.027-4.661,4.037c-3.059-1.248-7.951,1.735-8.945-2.933
		c-0.309-1.449-1.496-6.446,3.105-6.727C345.591,713.393,348.89,715.244,348.9,719.456z"/>
	<path fill="#FCFDFC" d="M142.927,612.575c-0.109,5.47-8.196,13.086-13.898,13.089c-4.318,0.002-9.278-5.349-9.046-9.76
		c0.303-5.767,8.676-13.289,14.594-13.109C139.161,602.934,143.028,607.464,142.927,612.575z"/>
	<path fill="#FAFBFB" d="M145.882,175.684c-3.082,4.505-7.247,4.728-11.904,3.011c-4.673-3.501-9.898-6.35-13.15-11.503
		c-2.081-3.299-3.657-6.688-1.16-10.339c2.536-3.709,6.3-3.372,9.7-1.742c6.937,3.327,12.366,8.525,16.191,15.179
		C146.362,171.688,145.809,173.865,145.882,175.684z"/>
	<path fill="#FBFCFB" d="M429.832,49.109c0.693,4.652-1.399,8.927-2.366,13.351c-0.589,2.695-2.495,4.722-6.107,4.503
		c-3.296-0.199-6.088-1.126-7.009-4.211c-2.361-7.903-1.928-15.771,1.433-23.417c1.274-2.897,3.593-4.613,6.482-4.241
		c3.106,0.4,5.67,2.148,6.605,5.703C429.591,43.534,430.113,46.221,429.832,49.109z"/>
	<path fill="#F8F0E7" d="M287.461,57.875c2.328,3.234,4.194,5.826,6.18,8.583c-2.556,0.843-4.912,1.621-7.258,2.395
		C285.069,65.144,286.539,61.921,287.461,57.875z"/>
	<path fill="#FAFAFB" d="M675.81,244.996c-3.608-2.797-3.419-6.391-2.146-10.214c6.277-7.474,14.131-11.757,24.039-11.887
		c3.382,2.499,6.493,5.114,4.252,10.004c-4.429,6.415-11.271,9.127-18.129,11.814c-1.935,1.432-3.916,1.995-6.016,0.32
		C677.143,245.021,676.477,245.008,675.81,244.996z"/>
	<path fill="#AB3737" d="M677.81,245.034c2.005-0.106,4.01-0.213,6.016-0.32C681.995,248.108,679.962,247.679,677.81,245.034z"/>
	<path fill="#D4DBDF" d="M405.2,205.967c-3.2-0.148-5.034-1.566-4.963-4.234c0.066-2.496,1.813-4.487,4.352-4.602
		c2.818-0.128,3.948,2.254,4.077,4.645C408.799,204.235,407.134,205.574,405.2,205.967z"/>
</g>
</svg>
